<svg width="1159" height="45" viewBox="0 0 1159 45" fill="none" xmlns="http://www.w3.org/2000/svg">
<path d="M14.8781 15.752C19.0541 17.816 22.8941 20.312 22.8941 25.496C22.8941 32.312 17.2781 35.48 11.1341 35.48C5.61413 35.48 0.0461251 32.744 0.0461251 27.176C0.0461251 23.24 2.39813 20.216 7.24613 18.152C4.03013 16.28 1.39013 13.88 1.39013 9.704C1.39013 3.848 6.38213 0.919998 11.8541 0.919998C16.8461 0.919998 21.5501 3.224 21.5501 8.072C21.5501 11.624 18.7661 14.12 14.8781 15.752ZM4.65413 7.112C4.65413 10.712 8.01413 12.392 13.0061 14.84L14.1581 15.416C17.0861 13.688 18.4781 10.856 18.4781 7.688C18.4781 3.608 15.8381 1.496 11.8061 1.496C8.25413 1.496 4.65413 3.176 4.65413 7.112ZM11.2781 34.904C15.7901 34.904 19.5821 33.08 19.5821 28.472C19.5821 24.104 15.7901 22.376 10.5581 19.88C9.69413 19.448 8.78213 19.016 7.91813 18.536C4.79813 20.552 3.26213 23.768 3.26213 27.224C3.26213 32.36 6.86213 34.904 11.2781 34.904ZM61.3328 30.44C61.3328 33.752 61.3328 34.52 63.9728 34.52V35H56.5808V29C54.9008 33.656 51.9248 35.48 48.0848 35.48C41.9408 35.48 38.1968 30.248 38.1968 23.384C38.1968 16.424 42.1328 10.616 49.0928 10.616C53.3168 10.616 55.6208 12.584 56.6288 15.608L56.5808 5.48C56.5808 3.32 56.5808 1.976 51.8288 1.88V1.4H61.3328V30.44ZM49.2368 34.664C52.3088 34.664 54.9488 32.696 56.5808 27.512V18.632C56.5808 14.744 54.3248 11.336 49.9088 11.336C46.7408 11.336 43.3328 13.208 43.3328 23.336C43.3328 29.24 44.3408 34.664 49.2368 34.664ZM71.8271 6.872C69.9551 6.872 68.5151 5.432 68.5151 3.608C68.5151 1.736 69.9551 0.295998 71.8271 0.295998C73.7471 0.295998 75.1391 1.688 75.1391 3.608C75.1391 5.432 73.7471 6.872 71.8271 6.872ZM76.9151 35H66.7391V34.52C69.4271 34.52 69.4271 33.752 69.4271 30.44V15.656C69.4271 13.496 69.4271 11.864 66.3071 11.576V11.096H74.2271V30.44C74.2271 33.752 74.2271 34.52 76.9151 34.52V35ZM104.877 0.775997C107.757 0.775997 110.493 2.264 110.493 5.288C110.493 7.352 109.389 8.504 107.805 8.504C106.653 8.504 105.693 7.784 105.261 6.968C106.509 5.624 107.373 4.376 107.373 3.128C107.373 2.072 106.509 1.352 104.925 1.352C102.333 1.352 101.805 3.224 101.805 7.208V11.096L106.365 11V11.672L101.805 11.576V30.44C101.805 33.752 101.805 34.52 105.693 34.52V35H93.8366V34.52C97.1006 34.52 97.1006 33.752 97.1006 30.44V11.576H86.9726V30.44C86.9726 33.752 86.9726 34.52 90.2366 34.52V35H79.5326V34.52C82.2206 34.52 82.2206 33.752 82.2206 30.44V11.576H79.5326V11.096H82.2206V10.808C82.2206 4.76 86.5406 1.16 93.0206 1.16C95.6606 1.16 97.8686 1.784 99.2126 2.888C100.557 1.544 102.477 0.775997 104.877 0.775997ZM86.9726 11.096H97.1006V9.56C95.9966 9.368 95.0366 8.648 94.6046 7.88C95.9966 6.632 97.0526 5.384 97.0526 4.184C97.0526 2.696 95.5646 1.736 93.0206 1.736C88.9406 1.736 86.9726 4.904 86.9726 10.04V11.096ZM129.866 26.744H130.346C130.25 31.304 127.274 35.48 120.362 35.48C114.074 35.48 108.602 30.536 108.602 23.048C108.602 15.32 113.498 10.616 119.834 10.616C126.554 10.616 130.298 15.032 130.298 22.28H113.786V23.048C113.786 30.2 116.09 34.664 121.61 34.664C126.794 34.664 129.77 31.16 129.866 26.744ZM119.834 11.192C115.706 11.192 113.978 14.744 113.786 21.752H125.258C125.21 15.512 124.154 11.192 119.834 11.192ZM149.183 10.616C152.879 10.616 154.655 12.92 154.655 15.656C154.655 17.96 153.263 19.976 151.391 19.976C150.239 19.976 148.991 19.16 148.607 18.248C150.143 16.424 150.959 14.792 150.959 13.544C150.959 11.864 149.519 11.48 148.319 11.48C144.767 11.48 142.127 15.08 140.975 20.456V30.44C140.975 33.752 140.975 34.52 144.815 34.52V35H133.535V34.52C136.223 34.52 136.223 33.752 136.223 30.44V15.656C136.223 13.496 136.223 11.864 133.103 11.576V11.096H140.975L140.879 18.968C142.271 13.544 145.343 10.616 149.183 10.616ZM177.632 26.744H178.112C178.016 31.304 175.04 35.48 168.128 35.48C161.84 35.48 156.368 30.536 156.368 23.048C156.368 15.32 161.264 10.616 167.6 10.616C174.32 10.616 178.064 15.032 178.064 22.28H161.552V23.048C161.552 30.2 163.856 34.664 169.376 34.664C174.56 34.664 177.536 31.16 177.632 26.744ZM167.6 11.192C163.472 11.192 161.743 14.744 161.552 21.752H173.024C172.976 15.512 171.92 11.192 167.6 11.192ZM205.781 30.44C205.781 33.704 205.781 34.52 208.469 34.52V35H197.909V34.52C201.029 34.52 201.029 33.704 201.029 30.44V17.144C201.029 13.496 199.157 12.008 196.421 12.008C193.109 12.008 190.565 14.264 188.741 17.768V30.44C188.741 33.704 188.741 34.52 191.861 34.52V35H181.301V34.52C183.989 34.52 183.989 33.704 183.989 30.44V15.656C183.989 13.496 183.989 11.864 180.869 11.576V11.096H188.741L188.645 16.856C190.805 12.92 194.117 10.616 198.389 10.616C202.421 10.616 205.781 12.824 205.781 17.816V30.44ZM223.454 11.672L217.982 11.576V28.088C217.982 29.96 218.126 31.544 218.462 32.456C218.702 33.128 219.23 33.704 220.382 33.704C221.438 33.704 222.158 33.128 222.542 32.312C222.926 31.448 222.974 29.96 222.974 28.04V25.112H223.454V28.04C223.454 30.2 223.406 32.216 222.494 33.512C221.39 35 219.806 35.48 218.222 35.48C216.206 35.48 214.91 34.76 214.238 33.512C213.566 32.312 213.278 30.536 213.278 27.368V11.576H210.206V11.096H211.742C215.486 11.096 216.926 8.12 217.454 2.312H217.982V11.096L223.454 11V11.672ZM237.45 35V34.52C241.578 34.376 241.578 33.368 241.578 29.864V6.536C241.578 3.032 241.578 2.024 237.45 1.88V1.4H250.746V1.88C246.666 2.024 246.666 3.032 246.666 6.536V29.864C246.666 33.368 246.666 34.376 250.746 34.52V35H237.45ZM277.968 30.44C277.968 33.704 277.968 34.52 280.656 34.52V35H270.096V34.52C273.216 34.52 273.216 33.704 273.216 30.44V17.144C273.216 13.496 271.344 12.008 268.608 12.008C265.296 12.008 262.752 14.264 260.928 17.768V30.44C260.928 33.704 260.928 34.52 264.048 34.52V35H253.488V34.52C256.176 34.52 256.176 33.704 256.176 30.44V15.656C256.176 13.496 256.176 11.864 253.056 11.576V11.096H260.928L260.832 16.856C262.992 12.92 266.304 10.616 270.576 10.616C274.608 10.616 277.968 12.824 277.968 17.816V30.44ZM294.537 35.48C291.657 35.48 289.497 34.568 288.201 33.752C286.569 32.696 285.945 32.024 285.465 32.024C284.601 32.024 284.361 33.656 284.217 35.48H283.785L283.977 24.44H284.457C284.553 32.216 290.073 34.904 294.537 34.904C296.553 34.904 298.521 34.472 299.625 33.512C300.441 32.84 300.873 31.928 300.873 30.728C300.873 27.08 297.225 26.072 292.425 24.872C287.385 23.576 284.169 22.136 284.169 17.864C284.169 15.56 285.225 13.64 287.001 12.44C288.873 11.192 291.177 10.664 293.289 10.664C296.361 10.664 298.329 11.816 299.529 12.632C300.489 13.304 301.065 13.928 301.497 13.928C302.121 13.928 302.217 13.112 302.265 10.664H302.745L302.889 20.264H302.457C302.025 16.232 299.385 11.192 293.289 11.192C291.609 11.192 289.737 11.624 288.345 12.488C287.337 13.112 286.521 14.12 286.521 15.56C286.521 18.488 289.881 19.496 293.961 20.504C299.385 21.8 303.945 23.096 303.945 28.28C303.945 31.016 302.553 32.84 300.537 34.04C299.145 34.856 297.081 35.48 294.537 35.48ZM319.735 11.672L314.263 11.576V28.088C314.263 29.96 314.407 31.544 314.743 32.456C314.983 33.128 315.511 33.704 316.663 33.704C317.719 33.704 318.439 33.128 318.823 32.312C319.207 31.448 319.255 29.96 319.255 28.04V25.112H319.735V28.04C319.735 30.2 319.687 32.216 318.775 33.512C317.671 35 316.087 35.48 314.503 35.48C312.487 35.48 311.191 34.76 310.519 33.512C309.847 32.312 309.559 30.536 309.559 27.368V11.576H306.487V11.096H308.023C311.767 11.096 313.207 8.12 313.735 2.312H314.263V11.096L319.735 11V11.672ZM346.249 26.12H346.729V30.296C346.729 32.12 346.537 33.08 345.961 33.848C345.433 34.52 344.329 35.432 342.457 35.432C340.681 35.432 339.721 34.712 339.241 33.992C338.713 33.272 338.425 32.312 338.425 30.344V28.664C337.801 30.536 335.401 35.48 329.449 35.48C327.145 35.48 325.417 34.904 324.169 33.704C322.921 32.6 322.393 30.968 322.393 29.24C322.393 27.368 323.017 26.12 324.121 25.112C326.761 22.808 333.049 21.512 338.425 20.504V17C338.425 12.152 335.785 11.144 333.097 11.144C330.985 11.144 329.353 11.72 328.345 12.776C327.961 13.112 327.769 13.448 327.769 14.024C327.769 15.176 328.537 16.76 330.169 18.632C329.737 19.688 328.441 20.408 327.145 20.408C325.273 20.408 324.073 18.584 324.073 16.616C324.073 13.592 327.337 10.616 333.385 10.616C338.905 10.616 343.129 12.68 343.129 18.152V30.344C343.129 31.4 343.177 32.168 343.417 32.696C343.609 33.176 343.993 33.56 344.665 33.56C345.385 33.56 345.769 33.08 345.961 32.696C346.201 32.264 346.249 31.544 346.249 30.296V26.12ZM331.513 33.56C335.353 33.56 338.041 30.104 338.425 26.456V20.984C333.913 21.944 329.833 23 328.345 25.208C327.577 26.072 327.385 27.224 327.385 28.568C327.385 29.816 327.529 30.872 328.057 31.832C328.633 32.84 329.689 33.56 331.513 33.56ZM369.648 10.568C371.904 10.568 373.104 12.392 373.056 14.36C373.008 15.992 372.144 17.336 370.848 17.336C370.032 17.336 369.312 16.856 369.024 16.28C370.032 14.984 370.512 13.928 370.512 12.872C370.512 11.576 369.792 11.24 369.12 11.24C367.728 11.24 366.768 13.064 367.44 15.368C367.872 16.376 368.112 17.48 368.112 18.68C368.112 23.384 364.56 26.744 359.136 26.744H355.344C353.712 26.744 352.416 27.56 352.416 28.808C352.416 30.008 353.136 30.872 355.68 30.872H364.272C368.64 30.872 371.52 32.408 371.52 36.392C371.52 41.384 366.576 44.552 357.984 44.552C350.16 44.552 347.712 41.72 347.712 39.08C347.712 37.112 348.816 35.288 353.472 34.856C351.024 34.184 350.016 32.456 350.016 30.632C350.016 28.376 351.936 26.264 355.44 26.264H355.776C352.272 25.16 350.16 22.328 350.16 18.68C350.16 13.976 353.664 10.616 359.136 10.616C362.544 10.616 365.184 11.912 366.72 14.072C366.624 12.2 367.632 10.568 369.648 10.568ZM359.136 26.168C362.064 26.168 363.648 23.336 363.648 18.68C363.648 14.024 362.064 11.192 359.136 11.192C356.16 11.192 354.624 14.024 354.624 18.68C354.624 23.336 356.16 26.168 359.136 26.168ZM364.704 35.144H355.776C352.128 35.144 349.68 36.152 349.68 39.08C349.68 42.392 353.232 43.928 357.984 43.928C364.656 43.928 369.36 41.816 369.36 38.504C369.36 35.672 367.392 35.144 364.704 35.144ZM389.699 10.616C393.395 10.616 395.171 12.92 395.171 15.656C395.171 17.96 393.779 19.976 391.907 19.976C390.755 19.976 389.507 19.16 389.123 18.248C390.659 16.424 391.475 14.792 391.475 13.544C391.475 11.864 390.035 11.48 388.835 11.48C385.283 11.48 382.643 15.08 381.491 20.456V30.44C381.491 33.752 381.491 34.52 385.331 34.52V35H374.051V34.52C376.739 34.52 376.739 33.752 376.739 30.44V15.656C376.739 13.496 376.739 11.864 373.619 11.576V11.096H381.491L381.395 18.968C382.787 13.544 385.859 10.616 389.699 10.616ZM420.499 26.12H420.979V30.296C420.979 32.12 420.787 33.08 420.211 33.848C419.683 34.52 418.579 35.432 416.707 35.432C414.931 35.432 413.971 34.712 413.491 33.992C412.963 33.272 412.675 32.312 412.675 30.344V28.664C412.051 30.536 409.651 35.48 403.699 35.48C401.395 35.48 399.667 34.904 398.419 33.704C397.171 32.6 396.643 30.968 396.643 29.24C396.643 27.368 397.267 26.12 398.371 25.112C401.011 22.808 407.299 21.512 412.675 20.504V17C412.675 12.152 410.035 11.144 407.347 11.144C405.235 11.144 403.603 11.72 402.595 12.776C402.211 13.112 402.019 13.448 402.019 14.024C402.019 15.176 402.787 16.76 404.419 18.632C403.987 19.688 402.691 20.408 401.395 20.408C399.523 20.408 398.323 18.584 398.323 16.616C398.323 13.592 401.587 10.616 407.635 10.616C413.155 10.616 417.379 12.68 417.379 18.152V30.344C417.379 31.4 417.427 32.168 417.667 32.696C417.859 33.176 418.243 33.56 418.915 33.56C419.635 33.56 420.019 33.08 420.211 32.696C420.451 32.264 420.499 31.544 420.499 30.296V26.12ZM405.763 33.56C409.603 33.56 412.291 30.104 412.675 26.456V20.984C408.163 21.944 404.083 23 402.595 25.208C401.827 26.072 401.635 27.224 401.635 28.568C401.635 29.816 401.779 30.872 402.307 31.832C402.883 32.84 403.939 33.56 405.763 33.56ZM463.29 30.44C463.29 33.752 463.29 34.52 465.978 34.52V35H455.514V34.52C458.586 34.52 458.586 33.752 458.586 30.44V17.144C458.586 13.496 456.714 12.152 454.362 12.152C451.194 12.152 448.938 14.408 447.258 17.672V30.44C447.258 33.752 447.258 34.52 450.282 34.52V35H439.434V34.52C442.458 34.52 442.458 33.752 442.458 30.44V17.144C442.458 13.496 440.682 12.152 438.282 12.152C435.114 12.152 432.858 14.456 431.178 17.768V30.44C431.178 33.752 431.178 34.52 434.25 34.52V35H423.738V34.52C426.426 34.52 426.426 33.752 426.426 30.44V15.656C426.426 13.496 426.426 11.864 423.306 11.576V11.096H431.178L431.082 16.904C433.146 12.968 436.362 10.616 440.25 10.616C443.85 10.616 446.826 12.536 447.21 16.712C449.274 12.92 452.442 10.616 456.33 10.616C460.122 10.616 463.29 12.824 463.29 17.624V30.44ZM501.732 30.44C501.732 33.752 501.732 34.52 504.42 34.52V35H494.292V34.52C496.98 34.52 496.98 33.752 496.98 30.44V15.656C496.98 13.496 496.98 11.768 494.1 11.72L487.332 11.576V30.44C487.332 33.752 487.332 34.52 491.172 34.52V35H479.892V34.52C482.58 34.52 482.58 33.752 482.58 30.44V11.576H479.892V11.096H482.58V10.232C482.58 4.136 486.708 0.584 493.188 0.584C497.796 0.584 501.3 2.36 501.3 5.48C501.3 7.832 499.812 9.128 498.036 9.128C496.692 9.128 495.492 8.312 494.964 7.4C496.356 6.152 497.412 4.76 497.412 3.56C497.412 2.072 495.732 1.16 493.188 1.16C489.108 1.16 487.332 4.04 487.332 9.128V11.096H501.732V30.44ZM517.158 35H507.03V34.52C509.718 34.52 509.718 33.752 509.718 30.44V5.624C509.718 3.464 509.718 2.024 506.598 1.88V1.4H514.47V30.44C514.47 33.752 514.518 34.52 517.158 34.52V35ZM532.454 11.672L526.982 11.576V28.088C526.982 29.96 527.126 31.544 527.462 32.456C527.702 33.128 528.23 33.704 529.382 33.704C530.438 33.704 531.158 33.128 531.542 32.312C531.926 31.448 531.974 29.96 531.974 28.04V25.112H532.454V28.04C532.454 30.2 532.406 32.216 531.494 33.512C530.39 35 528.806 35.48 527.222 35.48C525.206 35.48 523.91 34.76 523.238 33.512C522.566 32.312 522.278 30.536 522.278 27.368V11.576H519.206V11.096H520.742C524.486 11.096 525.926 8.12 526.454 2.312H526.982V11.096L532.454 11V11.672ZM556.616 26.744H557.096C557 31.304 554.024 35.48 547.112 35.48C540.824 35.48 535.352 30.536 535.352 23.048C535.352 15.32 540.248 10.616 546.584 10.616C553.304 10.616 557.048 15.032 557.048 22.28H540.536V23.048C540.536 30.2 542.84 34.664 548.36 34.664C553.544 34.664 556.52 31.16 556.616 26.744ZM546.584 11.192C542.456 11.192 540.728 14.744 540.536 21.752H552.008C551.96 15.512 550.904 11.192 546.584 11.192ZM575.933 10.616C579.629 10.616 581.405 12.92 581.405 15.656C581.405 17.96 580.013 19.976 578.141 19.976C576.989 19.976 575.741 19.16 575.357 18.248C576.893 16.424 577.709 14.792 577.709 13.544C577.709 11.864 576.269 11.48 575.069 11.48C571.517 11.48 568.877 15.08 567.725 20.456V30.44C567.725 33.752 567.725 34.52 571.565 34.52V35H560.285V34.52C562.973 34.52 562.973 33.752 562.973 30.44V15.656C562.973 13.496 562.973 11.864 559.853 11.576V11.096H567.725L567.629 18.968C569.021 13.544 572.093 10.616 575.933 10.616ZM594.396 35.48C591.516 35.48 589.356 34.568 588.06 33.752C586.428 32.696 585.804 32.024 585.324 32.024C584.46 32.024 584.22 33.656 584.076 35.48H583.644L583.836 24.44H584.316C584.412 32.216 589.932 34.904 594.396 34.904C596.412 34.904 598.38 34.472 599.484 33.512C600.3 32.84 600.732 31.928 600.732 30.728C600.732 27.08 597.084 26.072 592.284 24.872C587.244 23.576 584.028 22.136 584.028 17.864C584.028 15.56 585.084 13.64 586.86 12.44C588.732 11.192 591.036 10.664 593.148 10.664C596.22 10.664 598.188 11.816 599.388 12.632C600.348 13.304 600.924 13.928 601.356 13.928C601.98 13.928 602.076 13.112 602.124 10.664H602.604L602.748 20.264H602.316C601.884 16.232 599.244 11.192 593.148 11.192C591.468 11.192 589.596 11.624 588.204 12.488C587.196 13.112 586.38 14.12 586.38 15.56C586.38 18.488 589.74 19.496 593.82 20.504C599.244 21.8 603.804 23.096 603.804 28.28C603.804 31.016 602.412 32.84 600.396 34.04C599.004 34.856 596.94 35.48 594.396 35.48ZM658.196 30.44C658.196 33.752 658.196 34.52 660.884 34.52V35H650.42V34.52C653.492 34.52 653.492 33.752 653.492 30.44V17.144C653.492 13.496 651.62 12.152 649.268 12.152C646.1 12.152 643.844 14.408 642.164 17.672V30.44C642.164 33.752 642.164 34.52 645.188 34.52V35H634.34V34.52C637.364 34.52 637.364 33.752 637.364 30.44V17.144C637.364 13.496 635.588 12.152 633.188 12.152C630.02 12.152 627.764 14.456 626.084 17.768V30.44C626.084 33.752 626.084 34.52 629.156 34.52V35H618.644V34.52C621.332 34.52 621.332 33.752 621.332 30.44V15.656C621.332 13.496 621.332 11.864 618.212 11.576V11.096H626.084L625.988 16.904C628.052 12.968 631.268 10.616 635.156 10.616C638.756 10.616 641.732 12.536 642.116 16.712C644.18 12.92 647.348 10.616 651.236 10.616C655.028 10.616 658.196 12.824 658.196 17.624V30.44ZM687.124 26.12H687.604V30.296C687.604 32.12 687.412 33.08 686.836 33.848C686.308 34.52 685.204 35.432 683.332 35.432C681.556 35.432 680.596 34.712 680.116 33.992C679.588 33.272 679.3 32.312 679.3 30.344V28.664C678.676 30.536 676.276 35.48 670.324 35.48C668.02 35.48 666.292 34.904 665.044 33.704C663.796 32.6 663.268 30.968 663.268 29.24C663.268 27.368 663.892 26.12 664.996 25.112C667.636 22.808 673.924 21.512 679.3 20.504V17C679.3 12.152 676.66 11.144 673.972 11.144C671.86 11.144 670.228 11.72 669.22 12.776C668.836 13.112 668.644 13.448 668.644 14.024C668.644 15.176 669.412 16.76 671.044 18.632C670.612 19.688 669.316 20.408 668.02 20.408C666.148 20.408 664.948 18.584 664.948 16.616C664.948 13.592 668.212 10.616 674.26 10.616C679.78 10.616 684.004 12.68 684.004 18.152V30.344C684.004 31.4 684.052 32.168 684.292 32.696C684.484 33.176 684.868 33.56 685.54 33.56C686.26 33.56 686.644 33.08 686.836 32.696C687.076 32.264 687.124 31.544 687.124 30.296V26.12ZM672.388 33.56C676.228 33.56 678.916 30.104 679.3 26.456V20.984C674.788 21.944 670.708 23 669.22 25.208C668.452 26.072 668.26 27.224 668.26 28.568C668.26 29.816 668.404 30.872 668.932 31.832C669.508 32.84 670.564 33.56 672.388 33.56ZM713.739 30.44C713.739 33.752 713.739 34.52 716.379 34.52V35H708.987V29C707.307 33.656 704.331 35.48 700.491 35.48C694.347 35.48 690.603 30.248 690.603 23.384C690.603 16.424 694.539 10.616 701.499 10.616C705.723 10.616 708.027 12.584 709.035 15.608L708.987 5.48C708.987 3.32 708.987 1.976 704.235 1.88V1.4H713.739V30.44ZM701.643 34.664C704.715 34.664 707.355 32.696 708.987 27.512V18.632C708.987 14.744 706.731 11.336 702.315 11.336C699.147 11.336 695.739 13.208 695.739 23.336C695.739 29.24 696.747 34.664 701.643 34.664ZM740.553 26.744H741.033C740.937 31.304 737.961 35.48 731.049 35.48C724.761 35.48 719.289 30.536 719.289 23.048C719.289 15.32 724.185 10.616 730.521 10.616C737.241 10.616 740.985 15.032 740.985 22.28H724.473V23.048C724.473 30.2 726.777 34.664 732.297 34.664C737.481 34.664 740.457 31.16 740.553 26.744ZM730.521 11.192C726.393 11.192 724.665 14.744 724.473 21.752H735.945C735.897 15.512 734.841 11.192 730.521 11.192ZM771.113 10.616C777.113 10.616 780.905 15.608 780.905 22.424C780.905 29.384 776.825 35.48 769.001 35.48C764.585 35.48 761.465 32.6 760.793 28.904L758.249 35.432H757.769V5.624C757.769 3.464 757.769 2.024 754.649 1.88V1.4H762.521V11.096L762.425 17.24C764.105 12.584 767.465 10.616 771.113 10.616ZM768.809 34.952C772.313 34.952 775.721 32.936 775.721 22.472C775.721 16.76 775.097 11.432 770.057 11.432C766.937 11.432 764.009 13.736 762.473 18.584L762.425 27.128C762.425 31.736 764.729 34.952 768.809 34.952ZM792.642 39.32C790.866 43.64 788.754 44.6 787.026 44.6C784.482 44.6 782.322 42.776 782.322 39.848C782.322 37.64 783.666 35.768 785.346 35.816C786.594 35.816 787.746 36.584 788.034 37.496C786.306 39.176 784.914 41 784.962 42.392C784.962 43.496 785.826 44.072 787.122 44.072C788.562 44.072 790.434 43.208 792.114 39.176L793.794 35.192L786.21 17.24C784.386 12.824 783.81 11.576 780.882 11.576V11.096H793.122V11.576C789.042 11.576 789.57 13.112 791.25 17.24L796.146 29.576L801.186 17.192C802.53 13.88 803.442 11.576 798.066 11.576V11.096H807.186V11.576C804.066 11.576 803.25 13.592 801.762 17.192L792.642 39.32ZM842.565 30.44C842.565 33.752 842.565 34.52 845.205 34.52V35H837.861V29.384C835.701 33.176 832.245 35.48 828.117 35.48C824.085 35.48 820.773 33.32 820.773 28.376V15.656C820.773 12.344 820.773 11.576 818.085 11.576V11.096H825.525V29.048C825.525 32.696 827.301 34.184 829.941 34.184C833.349 34.184 835.989 31.928 837.813 28.472V15.512C837.813 12.536 837.813 11.624 833.397 11.576V11.096H842.565V30.44ZM859.381 35.48C856.501 35.48 854.341 34.568 853.045 33.752C851.413 32.696 850.789 32.024 850.309 32.024C849.445 32.024 849.205 33.656 849.061 35.48H848.629L848.821 24.44H849.301C849.397 32.216 854.917 34.904 859.381 34.904C861.397 34.904 863.365 34.472 864.469 33.512C865.285 32.84 865.717 31.928 865.717 30.728C865.717 27.08 862.069 26.072 857.269 24.872C852.229 23.576 849.013 22.136 849.013 17.864C849.013 15.56 850.069 13.64 851.845 12.44C853.717 11.192 856.021 10.664 858.133 10.664C861.205 10.664 863.173 11.816 864.373 12.632C865.333 13.304 865.909 13.928 866.341 13.928C866.965 13.928 867.061 13.112 867.109 10.664H867.589L867.733 20.264H867.301C866.869 16.232 864.229 11.192 858.133 11.192C856.453 11.192 854.581 11.624 853.189 12.488C852.181 13.112 851.365 14.12 851.365 15.56C851.365 18.488 854.725 19.496 858.805 20.504C864.229 21.8 868.789 23.096 868.789 28.28C868.789 31.016 867.397 32.84 865.381 34.04C863.989 34.856 861.925 35.48 859.381 35.48ZM877.187 6.872C875.315 6.872 873.875 5.432 873.875 3.608C873.875 1.736 875.315 0.295998 877.187 0.295998C879.107 0.295998 880.499 1.688 880.499 3.608C880.499 5.432 879.107 6.872 877.187 6.872ZM882.275 35H872.099V34.52C874.787 34.52 874.787 33.752 874.787 30.44V15.656C874.787 13.496 874.787 11.864 871.667 11.576V11.096H879.587V30.44C879.587 33.752 879.587 34.52 882.275 34.52V35ZM909.468 30.44C909.468 33.704 909.468 34.52 912.156 34.52V35H901.596V34.52C904.716 34.52 904.716 33.704 904.716 30.44V17.144C904.716 13.496 902.844 12.008 900.108 12.008C896.796 12.008 894.252 14.264 892.428 17.768V30.44C892.428 33.704 892.428 34.52 895.548 34.52V35H884.988V34.52C887.676 34.52 887.676 33.704 887.676 30.44V15.656C887.676 13.496 887.676 11.864 884.556 11.576V11.096H892.428L892.332 16.856C894.492 12.92 897.804 10.616 902.076 10.616C906.108 10.616 909.468 12.824 909.468 17.816V30.44ZM934.773 10.568C937.029 10.568 938.229 12.392 938.181 14.36C938.133 15.992 937.269 17.336 935.973 17.336C935.157 17.336 934.437 16.856 934.149 16.28C935.157 14.984 935.637 13.928 935.637 12.872C935.637 11.576 934.917 11.24 934.245 11.24C932.853 11.24 931.893 13.064 932.565 15.368C932.997 16.376 933.237 17.48 933.237 18.68C933.237 23.384 929.685 26.744 924.261 26.744H920.469C918.837 26.744 917.541 27.56 917.541 28.808C917.541 30.008 918.261 30.872 920.805 30.872H929.397C933.765 30.872 936.645 32.408 936.645 36.392C936.645 41.384 931.701 44.552 923.109 44.552C915.285 44.552 912.837 41.72 912.837 39.08C912.837 37.112 913.941 35.288 918.597 34.856C916.149 34.184 915.141 32.456 915.141 30.632C915.141 28.376 917.061 26.264 920.565 26.264H920.901C917.397 25.16 915.285 22.328 915.285 18.68C915.285 13.976 918.789 10.616 924.261 10.616C927.669 10.616 930.309 11.912 931.845 14.072C931.749 12.2 932.757 10.568 934.773 10.568ZM924.261 26.168C927.189 26.168 928.773 23.336 928.773 18.68C928.773 14.024 927.189 11.192 924.261 11.192C921.285 11.192 919.749 14.024 919.749 18.68C919.749 23.336 921.285 26.168 924.261 26.168ZM929.829 35.144H920.901C917.253 35.144 914.805 36.152 914.805 39.08C914.805 42.392 918.357 43.928 923.109 43.928C929.781 43.928 934.485 41.816 934.485 38.504C934.485 35.672 932.517 35.144 929.829 35.144ZM964.674 35.432C961.122 35.432 958.722 34.184 957.138 33.128C955.602 32.216 954.546 31.352 953.778 31.352C953.058 31.352 952.578 31.976 952.434 35.432H951.954L951.762 21.416H952.242C952.674 26.888 956.082 34.856 964.674 34.856C967.218 34.856 970.146 34.424 972.066 32.312C973.122 31.112 973.41 29.576 973.41 28.04C973.41 23.72 968.946 21.8 963.234 19.832C958.338 18.104 952.29 16.376 952.29 10.232C952.29 7.544 953.346 5.384 955.122 3.8C957.186 1.832 960.258 0.967998 963.426 0.967998C966.882 0.967998 969.186 2.312 970.53 3.272C972.162 4.376 972.882 5.096 973.602 5.096C974.322 5.096 974.85 4.424 974.898 0.967998H975.378L975.57 14.312H975.09C974.658 9.176 971.442 1.544 963.426 1.544C961.218 1.544 959.058 2.072 957.618 3.224C956.466 4.184 955.794 5.624 955.794 7.256C955.794 11.336 959.682 12.728 965.058 14.648C971.298 16.808 976.818 18.728 976.818 25.064C976.818 28.088 975.714 30.584 973.554 32.456C971.394 34.28 968.706 35.432 964.674 35.432ZM996.266 10.616C1002.31 10.616 1006.06 15.608 1006.06 22.424C1006.06 29.384 1002.27 35.48 994.874 35.48C991.13 35.48 988.73 33.656 987.674 30.728L987.722 39.848C987.722 42.824 987.722 43.784 991.609 43.784V44.264H980.09V43.784C982.922 43.736 982.922 42.68 982.922 39.704V15.656C982.922 13.496 982.922 11.864 979.802 11.576V11.096H987.674L987.626 17.336C989.402 12.536 992.57 10.616 996.266 10.616ZM994.058 34.76C997.514 34.76 1000.87 32.696 1000.87 22.472C1000.87 16.76 1000.25 11.432 995.21 11.432C992.138 11.432 989.402 13.64 987.674 18.44V27.464C987.674 31.352 989.978 34.76 994.058 34.76ZM1033.01 26.12H1033.49V30.296C1033.49 32.12 1033.3 33.08 1032.73 33.848C1032.2 34.52 1031.09 35.432 1029.22 35.432C1027.45 35.432 1026.49 34.712 1026.01 33.992C1025.48 33.272 1025.19 32.312 1025.19 30.344V28.664C1024.57 30.536 1022.17 35.48 1016.21 35.48C1013.91 35.48 1012.18 34.904 1010.93 33.704C1009.69 32.6 1009.16 30.968 1009.16 29.24C1009.16 27.368 1009.78 26.12 1010.89 25.112C1013.53 22.808 1019.81 21.512 1025.19 20.504V17C1025.19 12.152 1022.55 11.144 1019.86 11.144C1017.75 11.144 1016.12 11.72 1015.11 12.776C1014.73 13.112 1014.53 13.448 1014.53 14.024C1014.53 15.176 1015.3 16.76 1016.93 18.632C1016.5 19.688 1015.21 20.408 1013.91 20.408C1012.04 20.408 1010.84 18.584 1010.84 16.616C1010.84 13.592 1014.1 10.616 1020.15 10.616C1025.67 10.616 1029.89 12.68 1029.89 18.152V30.344C1029.89 31.4 1029.94 32.168 1030.18 32.696C1030.37 33.176 1030.76 33.56 1031.43 33.56C1032.15 33.56 1032.53 33.08 1032.73 32.696C1032.97 32.264 1033.01 31.544 1033.01 30.296V26.12ZM1018.28 33.56C1022.12 33.56 1024.81 30.104 1025.19 26.456V20.984C1020.68 21.944 1016.6 23 1015.11 25.208C1014.34 26.072 1014.15 27.224 1014.15 28.568C1014.15 29.816 1014.29 30.872 1014.82 31.832C1015.4 32.84 1016.45 33.56 1018.28 33.56ZM1051.9 10.616C1055.6 10.616 1057.37 12.92 1057.37 15.656C1057.37 17.96 1055.98 19.976 1054.11 19.976C1052.96 19.976 1051.71 19.16 1051.33 18.248C1052.86 16.424 1053.68 14.792 1053.68 13.544C1053.68 11.864 1052.24 11.48 1051.04 11.48C1047.49 11.48 1044.85 15.08 1043.69 20.456V30.44C1043.69 33.752 1043.69 34.52 1047.53 34.52V35H1036.25V34.52C1038.94 34.52 1038.94 33.752 1038.94 30.44V15.656C1038.94 13.496 1038.94 11.864 1035.82 11.576V11.096H1043.69L1043.6 18.968C1044.99 13.544 1048.06 10.616 1051.9 10.616ZM1080.63 29.528C1082.65 32.936 1083.7 34.52 1086.58 34.52V35H1074.44V34.52C1078.28 34.52 1077.61 33.128 1075.59 29.528L1070.6 21.224C1069.21 22.328 1067.77 23.288 1066.38 24.008V30.44C1066.38 33.752 1066.38 34.52 1069.45 34.52V35H1058.89V34.52C1061.58 34.52 1061.58 33.752 1061.58 30.44V5.624C1061.58 3.464 1061.58 2.024 1058.46 1.88V1.4H1066.38L1066.23 23.48C1070.94 20.936 1077.18 15.272 1077.18 12.776C1077.18 11.528 1075.5 11.576 1073.53 11.576V11.096H1083.75V11.576C1082.74 11.576 1081.5 11.576 1080.44 12.104C1079.19 12.728 1078.57 13.64 1076.41 15.944C1075.88 16.568 1074.97 17.48 1074.01 18.392L1080.63 29.528ZM1122.47 28.76C1124.05 32.696 1125.15 34.232 1128.47 34.52V35H1113.97V34.52C1119.15 34.232 1118.67 32.504 1117.14 28.76L1115.03 23.384H1102.74L1101.44 26.888C1099.28 32.6 1098.8 34.232 1104.66 34.52V35H1093.62V34.52C1097.84 34.232 1098.51 32.84 1100.82 26.888L1110.75 0.919998H1111.23L1122.47 28.76ZM1102.93 22.856H1114.79L1108.69 7.448L1102.93 22.856ZM1158.3 26.216H1158.78V30.056C1158.78 32.072 1158.59 32.984 1157.96 33.848C1157.44 34.568 1156.24 35.48 1154.17 35.48C1152.35 35.48 1151.2 34.808 1150.52 33.992C1149.9 33.128 1149.8 31.88 1149.8 30.152V26.072C1149.8 20.888 1146.88 19.16 1142.7 19.16H1137.95V29.864C1137.95 33.416 1137.95 34.376 1142.8 34.52V35H1128.97V34.52C1132.86 34.376 1132.86 33.416 1132.86 29.864V6.536C1132.86 2.984 1132.86 2.024 1128.97 1.88V1.4H1143.32C1150.52 1.4 1156.19 3.464 1156.19 10.232C1156.19 15.992 1152.06 18.44 1146.01 19.016C1151.24 19.976 1155.04 22.856 1155.04 26.936V30.104C1155.04 31.16 1155.13 31.976 1155.32 32.504C1155.52 32.984 1155.95 33.416 1156.67 33.416C1157.44 33.416 1157.82 32.888 1157.96 32.504C1158.2 32.024 1158.3 31.304 1158.3 30.056V26.216ZM1137.95 18.584H1143.32C1148.75 18.584 1150.62 16.52 1150.62 10.232C1150.62 3.944 1148.75 1.976 1143.32 1.976H1141.45C1137.95 1.976 1137.95 2.84 1137.95 6.296V18.584Z" fill="#404040"/>
</svg>
