<svg width="339" height="44" viewBox="0 0 339 44" fill="none" xmlns="http://www.w3.org/2000/svg">
<path d="M0.2 34V33.52C4.328 33.376 4.328 32.368 4.328 28.864V5.536C4.328 2.032 4.328 1.024 0.2 0.879997V0.399998H13.496V0.879997C9.416 1.024 9.416 2.032 9.416 5.536V28.864C9.416 32.368 9.416 33.376 13.496 33.52V34H0.2ZM40.19 29.44C40.19 32.704 40.19 33.52 42.878 33.52V34H32.318V33.52C35.438 33.52 35.438 32.704 35.438 29.44V16.144C35.438 12.496 33.566 11.008 30.83 11.008C27.518 11.008 24.974 13.264 23.15 16.768V29.44C23.15 32.704 23.15 33.52 26.27 33.52V34H15.71V33.52C18.398 33.52 18.398 32.704 18.398 29.44V14.656C18.398 12.496 18.398 10.864 15.278 10.576V10.096H23.15L23.054 15.856C25.214 11.92 28.526 9.616 32.798 9.616C36.83 9.616 40.19 11.824 40.19 16.816V29.44ZM56.231 34.48C53.351 34.48 51.191 33.568 49.895 32.752C48.263 31.696 47.639 31.024 47.159 31.024C46.295 31.024 46.055 32.656 45.911 34.48H45.479L45.671 23.44H46.151C46.247 31.216 51.767 33.904 56.231 33.904C58.247 33.904 60.215 33.472 61.319 32.512C62.135 31.84 62.567 30.928 62.567 29.728C62.567 26.08 58.919 25.072 54.119 23.872C49.079 22.576 45.863 21.136 45.863 16.864C45.863 14.56 46.919 12.64 48.695 11.44C50.567 10.192 52.871 9.664 54.983 9.664C58.055 9.664 60.023 10.816 61.223 11.632C62.183 12.304 62.759 12.928 63.191 12.928C63.815 12.928 63.911 12.112 63.959 9.664H64.439L64.583 19.264H64.151C63.719 15.232 61.079 10.192 54.983 10.192C53.303 10.192 51.431 10.624 50.039 11.488C49.031 12.112 48.215 13.12 48.215 14.56C48.215 17.488 51.575 18.496 55.655 19.504C61.079 20.8 65.639 22.096 65.639 27.28C65.639 30.016 64.247 31.84 62.231 33.04C60.839 33.856 58.775 34.48 56.231 34.48ZM80.9008 10.672L75.4288 10.576V27.088C75.4288 28.96 75.5728 30.544 75.9088 31.456C76.1488 32.128 76.6768 32.704 77.8288 32.704C78.8848 32.704 79.6048 32.128 79.9888 31.312C80.3728 30.448 80.4208 28.96 80.4208 27.04V24.112H80.9008V27.04C80.9008 29.2 80.8528 31.216 79.9408 32.512C78.8368 34 77.2528 34.48 75.6688 34.48C73.6528 34.48 72.3568 33.76 71.6848 32.512C71.0128 31.312 70.7248 29.536 70.7248 26.368V10.576H67.6528V10.096H69.1888C72.9328 10.096 74.3728 7.12 74.9008 1.312H75.4288V10.096L80.9008 10V10.672ZM106.887 25.12H107.367V29.296C107.367 31.12 107.175 32.08 106.599 32.848C106.071 33.52 104.967 34.432 103.095 34.432C101.319 34.432 100.359 33.712 99.8791 32.992C99.3511 32.272 99.0631 31.312 99.0631 29.344V27.664C98.4391 29.536 96.0391 34.48 90.0871 34.48C87.7831 34.48 86.0551 33.904 84.8071 32.704C83.5591 31.6 83.0311 29.968 83.0311 28.24C83.0311 26.368 83.6551 25.12 84.7591 24.112C87.3991 21.808 93.6871 20.512 99.0631 19.504V16C99.0631 11.152 96.4231 10.144 93.7351 10.144C91.6231 10.144 89.9911 10.72 88.9831 11.776C88.5991 12.112 88.4071 12.448 88.4071 13.024C88.4071 14.176 89.1751 15.76 90.8071 17.632C90.3751 18.688 89.0791 19.408 87.7831 19.408C85.9111 19.408 84.7111 17.584 84.7111 15.616C84.7111 12.592 87.9751 9.616 94.0231 9.616C99.5431 9.616 103.767 11.68 103.767 17.152V29.344C103.767 30.4 103.815 31.168 104.055 31.696C104.247 32.176 104.631 32.56 105.303 32.56C106.023 32.56 106.407 32.08 106.599 31.696C106.839 31.264 106.887 30.544 106.887 29.296V25.12ZM92.1511 32.56C95.9911 32.56 98.6791 29.104 99.0631 25.456V19.984C94.5511 20.944 90.4711 22 88.9831 24.208C88.2151 25.072 88.0231 26.224 88.0231 27.568C88.0231 28.816 88.1671 29.872 88.6951 30.832C89.2711 31.84 90.3271 32.56 92.1511 32.56ZM129.758 9.568C132.014 9.568 133.214 11.392 133.166 13.36C133.118 14.992 132.254 16.336 130.958 16.336C130.142 16.336 129.422 15.856 129.134 15.28C130.142 13.984 130.622 12.928 130.622 11.872C130.622 10.576 129.902 10.24 129.23 10.24C127.838 10.24 126.878 12.064 127.55 14.368C127.982 15.376 128.222 16.48 128.222 17.68C128.222 22.384 124.67 25.744 119.246 25.744H115.454C113.822 25.744 112.526 26.56 112.526 27.808C112.526 29.008 113.246 29.872 115.79 29.872H124.382C128.75 29.872 131.63 31.408 131.63 35.392C131.63 40.384 126.686 43.552 118.094 43.552C110.27 43.552 107.822 40.72 107.822 38.08C107.822 36.112 108.926 34.288 113.582 33.856C111.134 33.184 110.126 31.456 110.126 29.632C110.126 27.376 112.046 25.264 115.55 25.264H115.886C112.382 24.16 110.27 21.328 110.27 17.68C110.27 12.976 113.774 9.616 119.246 9.616C122.654 9.616 125.294 10.912 126.83 13.072C126.734 11.2 127.742 9.568 129.758 9.568ZM119.246 25.168C122.174 25.168 123.758 22.336 123.758 17.68C123.758 13.024 122.174 10.192 119.246 10.192C116.27 10.192 114.734 13.024 114.734 17.68C114.734 22.336 116.27 25.168 119.246 25.168ZM124.814 34.144H115.886C112.238 34.144 109.79 35.152 109.79 38.08C109.79 41.392 113.342 42.928 118.094 42.928C124.766 42.928 129.47 40.816 129.47 37.504C129.47 34.672 127.502 34.144 124.814 34.144ZM149.281 9.616C152.977 9.616 154.753 11.92 154.753 14.656C154.753 16.96 153.361 18.976 151.489 18.976C150.337 18.976 149.089 18.16 148.705 17.248C150.241 15.424 151.057 13.792 151.057 12.544C151.057 10.864 149.617 10.48 148.417 10.48C144.865 10.48 142.225 14.08 141.073 19.456V29.44C141.073 32.752 141.073 33.52 144.913 33.52V34H133.633V33.52C136.321 33.52 136.321 32.752 136.321 29.44V14.656C136.321 12.496 136.321 10.864 133.201 10.576V10.096H141.073L140.977 17.968C142.369 12.544 145.441 9.616 149.281 9.616ZM179.553 25.12H180.033V29.296C180.033 31.12 179.841 32.08 179.265 32.848C178.737 33.52 177.633 34.432 175.761 34.432C173.985 34.432 173.025 33.712 172.545 32.992C172.017 32.272 171.729 31.312 171.729 29.344V27.664C171.105 29.536 168.705 34.48 162.753 34.48C160.449 34.48 158.721 33.904 157.473 32.704C156.225 31.6 155.697 29.968 155.697 28.24C155.697 26.368 156.321 25.12 157.425 24.112C160.065 21.808 166.353 20.512 171.729 19.504V16C171.729 11.152 169.089 10.144 166.401 10.144C164.289 10.144 162.657 10.72 161.649 11.776C161.265 12.112 161.073 12.448 161.073 13.024C161.073 14.176 161.841 15.76 163.473 17.632C163.041 18.688 161.745 19.408 160.449 19.408C158.577 19.408 157.377 17.584 157.377 15.616C157.377 12.592 160.641 9.616 166.689 9.616C172.209 9.616 176.433 11.68 176.433 17.152V29.344C176.433 30.4 176.481 31.168 176.721 31.696C176.913 32.176 177.297 32.56 177.969 32.56C178.689 32.56 179.073 32.08 179.265 31.696C179.505 31.264 179.553 30.544 179.553 29.296V25.12ZM164.817 32.56C168.657 32.56 171.345 29.104 171.729 25.456V19.984C167.217 20.944 163.137 22 161.649 24.208C160.881 25.072 160.689 26.224 160.689 27.568C160.689 28.816 160.833 29.872 161.361 30.832C161.937 31.84 162.993 32.56 164.817 32.56ZM221.816 29.44C221.816 32.752 221.816 33.52 224.504 33.52V34H214.04V33.52C217.112 33.52 217.112 32.752 217.112 29.44V16.144C217.112 12.496 215.24 11.152 212.888 11.152C209.72 11.152 207.464 13.408 205.784 16.672V29.44C205.784 32.752 205.784 33.52 208.808 33.52V34H197.96V33.52C200.984 33.52 200.984 32.752 200.984 29.44V16.144C200.984 12.496 199.208 11.152 196.808 11.152C193.64 11.152 191.384 13.456 189.704 16.768V29.44C189.704 32.752 189.704 33.52 192.776 33.52V34H182.264V33.52C184.952 33.52 184.952 32.752 184.952 29.44V14.656C184.952 12.496 184.952 10.864 181.832 10.576V10.096H189.704L189.608 15.904C191.672 11.968 194.888 9.616 198.776 9.616C202.376 9.616 205.352 11.536 205.736 15.712C207.8 11.92 210.968 9.616 214.856 9.616C218.648 9.616 221.816 11.824 221.816 16.624V29.44ZM252.338 0.399998C259.73 0.399998 265.346 2.464 265.346 9.952C265.346 17.488 259.73 19.6 252.338 19.6H246.386V28.864C246.386 32.368 246.386 33.376 251.666 33.52V34H237.41V33.52C241.298 33.376 241.298 32.368 241.298 28.864V5.536C241.298 1.984 241.298 1.024 237.41 0.879997V0.399998H252.338ZM252.338 19.024C257.954 19.024 259.826 17.008 259.826 9.952C259.826 2.944 257.954 0.975999 252.338 0.975999H249.89C246.386 0.975999 246.386 1.84 246.386 5.296V19.024H252.338ZM290.175 25.12H290.655V29.296C290.655 31.12 290.463 32.08 289.887 32.848C289.359 33.52 288.255 34.432 286.383 34.432C284.607 34.432 283.647 33.712 283.167 32.992C282.639 32.272 282.351 31.312 282.351 29.344V27.664C281.727 29.536 279.327 34.48 273.375 34.48C271.071 34.48 269.343 33.904 268.095 32.704C266.847 31.6 266.319 29.968 266.319 28.24C266.319 26.368 266.943 25.12 268.047 24.112C270.687 21.808 276.975 20.512 282.351 19.504V16C282.351 11.152 279.711 10.144 277.023 10.144C274.911 10.144 273.279 10.72 272.271 11.776C271.887 12.112 271.695 12.448 271.695 13.024C271.695 14.176 272.463 15.76 274.095 17.632C273.663 18.688 272.367 19.408 271.071 19.408C269.199 19.408 267.999 17.584 267.999 15.616C267.999 12.592 271.263 9.616 277.311 9.616C282.831 9.616 287.055 11.68 287.055 17.152V29.344C287.055 30.4 287.103 31.168 287.343 31.696C287.535 32.176 287.919 32.56 288.591 32.56C289.311 32.56 289.695 32.08 289.887 31.696C290.127 31.264 290.175 30.544 290.175 29.296V25.12ZM275.439 32.56C279.279 32.56 281.967 29.104 282.351 25.456V19.984C277.839 20.944 273.759 22 272.271 24.208C271.503 25.072 271.311 26.224 271.311 27.568C271.311 28.816 271.455 29.872 271.983 30.832C272.559 31.84 273.615 32.56 275.439 32.56ZM313.046 9.568C315.302 9.568 316.502 11.392 316.454 13.36C316.406 14.992 315.542 16.336 314.246 16.336C313.43 16.336 312.71 15.856 312.422 15.28C313.43 13.984 313.91 12.928 313.91 11.872C313.91 10.576 313.19 10.24 312.518 10.24C311.126 10.24 310.166 12.064 310.838 14.368C311.27 15.376 311.51 16.48 311.51 17.68C311.51 22.384 307.958 25.744 302.534 25.744H298.742C297.11 25.744 295.814 26.56 295.814 27.808C295.814 29.008 296.534 29.872 299.078 29.872H307.67C312.038 29.872 314.918 31.408 314.918 35.392C314.918 40.384 309.974 43.552 301.382 43.552C293.558 43.552 291.11 40.72 291.11 38.08C291.11 36.112 292.214 34.288 296.87 33.856C294.422 33.184 293.414 31.456 293.414 29.632C293.414 27.376 295.334 25.264 298.838 25.264H299.174C295.67 24.16 293.558 21.328 293.558 17.68C293.558 12.976 297.062 9.616 302.534 9.616C305.942 9.616 308.582 10.912 310.118 13.072C310.022 11.2 311.03 9.568 313.046 9.568ZM302.534 25.168C305.462 25.168 307.046 22.336 307.046 17.68C307.046 13.024 305.462 10.192 302.534 10.192C299.558 10.192 298.022 13.024 298.022 17.68C298.022 22.336 299.558 25.168 302.534 25.168ZM308.102 34.144H299.174C295.526 34.144 293.078 35.152 293.078 38.08C293.078 41.392 296.63 42.928 301.382 42.928C308.054 42.928 312.758 40.816 312.758 37.504C312.758 34.672 310.79 34.144 308.102 34.144ZM337.814 25.744H338.294C338.198 30.304 335.222 34.48 328.31 34.48C322.022 34.48 316.55 29.536 316.55 22.048C316.55 14.32 321.446 9.616 327.782 9.616C334.502 9.616 338.246 14.032 338.246 21.28H321.734V22.048C321.734 29.2 324.038 33.664 329.558 33.664C334.742 33.664 337.718 30.16 337.814 25.744ZM327.782 10.192C323.654 10.192 321.926 13.744 321.734 20.752H333.206C333.158 14.512 332.102 10.192 327.782 10.192Z" fill="#1E1E1E"/>
</svg>
