<svg width="60" height="60" viewBox="0 0 60 60" fill="none" xmlns="http://www.w3.org/2000/svg">
<path d="M51.1714 3.17187C52.7335 1.60977 55.2662 1.60977 56.8282 3.17187C58.3903 4.73396 58.3903 7.26662 56.8282 8.82872L8.82854 56.8284C7.26645 58.3905 4.73379 58.3905 3.17169 56.8284C1.60959 55.2663 1.60959 52.7337 3.17169 51.1716L51.1714 3.17187Z" fill="black"/>
<path d="M58 45C58 47.2091 56.2091 49 54 49C51.7909 49 50 47.2091 50 45V6C50 3.79086 51.7909 2 54 2C56.2091 2 58 3.79086 58 6V45Z" fill="black"/>
<path d="M15 10C12.7909 10 11 8.20913 11 6C11 3.79086 12.7909 2 15 2L54 2C56.2091 2 58 3.79086 58 6C58 8.20914 56.2091 10 54 10L15 10Z" fill="black"/>
</svg>
