<svg width="26" height="26" viewBox="0 0 26 26" fill="none" xmlns="http://www.w3.org/2000/svg">
<path d="M6.35047 4.59334L6.46639 4.69517L12.9989 11.2385L19.5336 4.69517C19.6481 4.58026 19.7842 4.48909 19.934 4.42689C20.0838 4.36468 20.2445 4.33266 20.4067 4.33266C20.569 4.33266 20.7296 4.36468 20.8794 4.42689C21.0293 4.48909 21.1654 4.58026 21.2799 4.69517C21.7241 5.1415 21.7587 5.84242 21.3817 6.32775L21.2799 6.44367L14.7452 12.987L21.3048 19.5563C21.5365 19.7883 21.6666 20.1027 21.6666 20.4306C21.6666 20.7584 21.5365 21.0729 21.3048 21.3048C21.0925 21.5177 20.8097 21.6457 20.5096 21.6646C20.2095 21.6836 19.9129 21.5922 19.6755 21.4078L19.5596 21.3048L12.9989 14.7355L6.44039 21.3048C6.32587 21.4196 6.18986 21.5106 6.04012 21.5727C5.89038 21.6348 5.72987 21.6668 5.56776 21.6668C5.40565 21.6668 5.24514 21.6348 5.0954 21.5727C4.94566 21.5106 4.80965 21.4196 4.69514 21.3048C4.48243 21.0917 4.35465 20.8084 4.33571 20.508C4.31676 20.2075 4.40796 19.9104 4.59222 19.6723L4.69514 19.5563L11.2536 12.9859L4.72114 6.44367C4.48946 6.2117 4.35934 5.89726 4.35934 5.56942C4.35934 5.24158 4.48946 4.92714 4.72114 4.69517C4.93346 4.48228 5.21626 4.35432 5.51633 4.33537C5.8164 4.31642 6.11305 4.40777 6.35047 4.59225V4.59334Z" fill="#17181A"/>
</svg>
