<svg width="128" height="128" viewBox="0 0 128 128" fill="none" xmlns="http://www.w3.org/2000/svg"><path d="M24.5 15.941C19.791 15.941 15.96 19.772 15.96 24.481V71.481C15.96 76.19 19.791 80.021 24.5 80.021H64.035C66.221 80.021 67.995 81.794 67.995 83.981C67.995 86.169 66.223 87.94 64.035 87.94H24.5C15.424 87.94 8.04 80.556 8.04 71.48V24.48C8.04 15.404 15.424 8.02 24.5 8.02H103.5C112.576 8.02 119.96 15.404 119.96 24.48V51.994C119.96 54.18 118.188 55.954 116 55.954C113.813 55.954 112.04 54.181 112.04 51.994V24.481C112.04 19.772 108.209 15.941 103.5 15.941H24.5Z" fill="black"/><path d="M44 95.962C41.791 95.962 40 97.754 40 99.962C40 102.171 41.791 103.962 44 103.962H84C86.209 103.962 88 102.171 88 99.962C88 97.754 86.209 95.962 84 95.962H44Z" fill="black"/><path d="M16 112.019C13.791 112.019 12 113.81 12 116.019C12 118.227 13.791 120.019 16 120.019H112C114.209 120.019 116 118.227 116 116.019C116 113.81 114.209 112.019 112 112.019H16Z" fill="black"/><path d="M36 31.991C33.792 31.991 32.004 33.78 32.004 35.988C32.004 38.195 33.794 39.984 36 39.984H92C94.206 39.984 95.996 38.195 95.996 35.988C95.996 33.78 94.206 31.991 92 31.991H36Z" fill="black"/><path d="M36 47.995C33.791 47.995 32 49.786 32 51.995C32 54.204 33.791 55.995 36 55.995H48.765C50.975 55.995 52.765 54.204 52.765 51.995C52.765 49.786 50.974 47.995 48.765 47.995H36Z" fill="black"/><path d="M84.71 87.914C86.586 86.747 87.161 84.281 85.995 82.405L82.029 76.026L86.011 69.511C87.164 67.626 86.57 65.165 84.685 64.012C82.801 62.86 80.339 63.454 79.186 65.339L73.918 73.957C73.129 75.248 73.135 76.872 73.934 78.156L79.203 86.63C79.961 87.849 81.268 88.519 82.604 88.519C83.349 88.519 84.079 88.31 84.71 87.914Z" fill="black"/><path d="M114.126 86.631L119.395 78.158C120.194 76.874 120.2 75.249 119.411 73.959L114.143 65.34C112.99 63.455 110.529 62.861 108.644 64.014C106.759 65.165 106.165 67.628 107.318 69.513L111.3 76.028L107.334 82.406C106.168 84.283 106.743 86.749 108.619 87.915C109.276 88.324 110.006 88.519 110.728 88.519C112.064 88.519 113.37 87.849 114.126 86.631Z" fill="black"/><path d="M92.946 91.979C94.63 91.979 96.196 90.908 96.748 89.22L104.603 65.21C105.29 63.111 104.145 60.853 102.045 60.165C99.946 59.478 97.688 60.623 97 62.723L89.144 86.735C88.456 88.834 89.601 91.093 91.701 91.78C92.115 91.915 92.534 91.979 92.946 91.979Z" fill="black"/></svg>
