<svg width="33" height="33" viewBox="0 0 33 33" fill="none" xmlns="http://www.w3.org/2000/svg">
<path d="M28.6207 5.12333L3.05809 15.2692C1.61753 15.841 1.65362 16.6719 3.13154 17.123L9.30801 19.008L11.8193 26.6938C12.1481 27.7001 13.0069 27.9122 13.7416 27.1636L16.9814 23.8626L23.3767 28.683C24.2076 29.3093 25.0619 28.9797 25.2862 27.9402L29.953 6.31061C30.1766 5.27407 29.581 4.74219 28.6207 5.12333ZM24.7306 10.0137L13.8269 20.0062C13.6309 20.1858 13.4534 20.5419 13.4262 20.8055L12.9448 25.4605C12.8908 25.9832 12.7156 26.0047 12.554 25.5037L10.4441 18.9623C10.3616 18.7063 10.4746 18.3927 10.695 18.2567L24.5229 9.72574C25.4041 9.18213 25.498 9.31051 24.7306 10.0137Z" fill="#CCCCCC"/>
</svg>
