<svg width="932" height="491" viewBox="0 0 932 491" fill="none" xmlns="http://www.w3.org/2000/svg">
<rect x="787.5" y="1" width="121" height="121" rx="60.5" fill="white"/>
<rect x="787.5" y="1" width="121" height="121" rx="60.5" stroke="#171616" stroke-width="2"/>
<path d="M818.438 54.9091H820.835L825.003 65.0852H825.156L829.324 54.9091H831.721V68H829.842V58.527H829.72L825.859 67.9808H824.3L820.439 58.5206H820.317V68H818.438V54.9091ZM838.671 68.1982C837.703 68.1982 836.87 67.9915 836.171 67.5781C835.477 67.1605 834.94 66.5746 834.561 65.8203C834.186 65.0618 833.998 64.1733 833.998 63.1548C833.998 62.1491 834.186 61.2628 834.561 60.4957C834.94 59.7287 835.468 59.13 836.146 58.6996C836.828 58.2692 837.624 58.054 838.536 58.054C839.09 58.054 839.627 58.1456 840.147 58.3288C840.667 58.5121 841.134 58.7997 841.547 59.1918C841.96 59.5838 842.286 60.093 842.525 60.7195C842.764 61.3416 842.883 62.098 842.883 62.9886V63.6662H835.078V62.2344H841.01C841.01 61.7315 840.908 61.2862 840.703 60.8984C840.499 60.5064 840.211 60.1974 839.84 59.9716C839.474 59.7457 839.044 59.6328 838.549 59.6328C838.012 59.6328 837.544 59.7649 837.143 60.0291C836.747 60.2891 836.44 60.63 836.222 61.0518C836.009 61.4695 835.903 61.9233 835.903 62.4134V63.532C835.903 64.1882 836.018 64.7464 836.248 65.2067C836.482 65.6669 836.808 66.0185 837.226 66.2614C837.644 66.5 838.132 66.6193 838.69 66.6193C839.052 66.6193 839.382 66.5682 839.681 66.4659C839.979 66.3594 840.237 66.2017 840.454 65.9929C840.671 65.7841 840.838 65.5263 840.953 65.2195L842.762 65.5455C842.617 66.0781 842.357 66.5447 841.982 66.9453C841.611 67.3416 841.144 67.6506 840.582 67.8722C840.024 68.0895 839.387 68.1982 838.671 68.1982ZM846.915 62.1705V68H845.004V58.1818H846.838V59.7798H846.96C847.185 59.2599 847.539 58.8423 848.021 58.527C848.506 58.2116 849.118 58.054 849.855 58.054C850.524 58.054 851.11 58.1946 851.613 58.4759C852.116 58.7528 852.506 59.1662 852.783 59.7159C853.06 60.2656 853.198 60.9453 853.198 61.755V68H851.287V61.9851C851.287 61.2734 851.102 60.7173 850.731 60.3168C850.36 59.9119 849.851 59.7095 849.203 59.7095C848.76 59.7095 848.366 59.8054 848.021 59.9972C847.68 60.1889 847.409 60.4702 847.209 60.8409C847.013 61.2074 846.915 61.6506 846.915 62.1705ZM860.344 58.1818V59.7159H854.982V58.1818H860.344ZM856.42 55.8295H858.331V65.1172C858.331 65.4879 858.386 65.767 858.497 65.9545C858.608 66.1378 858.751 66.2635 858.925 66.3317C859.104 66.3956 859.298 66.4276 859.507 66.4276C859.661 66.4276 859.795 66.4169 859.91 66.3956C860.025 66.3743 860.114 66.3572 860.178 66.3445L860.523 67.9233C860.413 67.9659 860.255 68.0085 860.05 68.0511C859.846 68.098 859.59 68.1236 859.283 68.1278C858.781 68.1364 858.312 68.0469 857.877 67.8594C857.442 67.6719 857.091 67.3821 856.822 66.9901C856.554 66.598 856.42 66.1058 856.42 65.5135V55.8295ZM866.489 68.1982C865.568 68.1982 864.765 67.9872 864.079 67.5653C863.393 67.1435 862.86 66.5533 862.481 65.7947C862.102 65.0362 861.912 64.1499 861.912 63.1357C861.912 62.1172 862.102 61.2266 862.481 60.4638C862.86 59.701 863.393 59.1087 864.079 58.6868C864.765 58.2649 865.568 58.054 866.489 58.054C867.409 58.054 868.213 58.2649 868.899 58.6868C869.585 59.1087 870.117 59.701 870.497 60.4638C870.876 61.2266 871.066 62.1172 871.066 63.1357C871.066 64.1499 870.876 65.0362 870.497 65.7947C870.117 66.5533 869.585 67.1435 868.899 67.5653C868.213 67.9872 867.409 68.1982 866.489 68.1982ZM866.495 66.5938C867.092 66.5938 867.586 66.4361 867.978 66.1207C868.37 65.8054 868.66 65.3857 868.847 64.8615C869.039 64.3374 869.135 63.7599 869.135 63.1293C869.135 62.5028 869.039 61.9276 868.847 61.4034C868.66 60.875 868.37 60.451 867.978 60.1314C867.586 59.8118 867.092 59.652 866.495 59.652C865.894 59.652 865.396 59.8118 864.999 60.1314C864.607 60.451 864.316 60.875 864.124 61.4034C863.936 61.9276 863.843 62.5028 863.843 63.1293C863.843 63.7599 863.936 64.3374 864.124 64.8615C864.316 65.3857 864.607 65.8054 864.999 66.1207C865.396 66.4361 865.894 66.5938 866.495 66.5938ZM873.199 68V58.1818H875.046V59.7415H875.148C875.327 59.2131 875.643 58.7976 876.094 58.495C876.55 58.1882 877.066 58.0348 877.641 58.0348C877.761 58.0348 877.901 58.0391 878.063 58.0476C878.229 58.0561 878.359 58.0668 878.453 58.0795V59.9077C878.376 59.8864 878.24 59.8629 878.044 59.8374C877.848 59.8075 877.652 59.7926 877.456 59.7926C877.004 59.7926 876.602 59.8885 876.248 60.0803C875.898 60.2678 875.621 60.5298 875.417 60.8665C875.212 61.1989 875.11 61.5781 875.11 62.0043V68H873.199Z" fill="black"/>
<rect x="248.5" y="330" width="121" height="121" rx="60.5" fill="white"/>
<rect x="248.5" y="330" width="121" height="121" rx="60.5" stroke="#171616" stroke-width="2"/>
<path d="M279.832 370.409V383.5H277.857V370.409H279.832ZM284.467 377.67V383.5H282.555V373.682H284.39V375.28H284.511C284.737 374.76 285.091 374.342 285.572 374.027C286.058 373.712 286.67 373.554 287.407 373.554C288.076 373.554 288.662 373.695 289.165 373.976C289.668 374.253 290.057 374.666 290.334 375.216C290.611 375.766 290.75 376.445 290.75 377.255V383.5H288.839V377.485C288.839 376.773 288.653 376.217 288.283 375.817C287.912 375.412 287.403 375.21 286.755 375.21C286.312 375.21 285.918 375.305 285.572 375.497C285.231 375.689 284.961 375.97 284.761 376.341C284.565 376.707 284.467 377.151 284.467 377.67ZM297.896 373.682V375.216H292.533V373.682H297.896ZM293.972 371.33H295.883V380.617C295.883 380.988 295.938 381.267 296.049 381.455C296.16 381.638 296.302 381.763 296.477 381.832C296.656 381.896 296.85 381.928 297.059 381.928C297.212 381.928 297.347 381.917 297.462 381.896C297.577 381.874 297.666 381.857 297.73 381.844L298.075 383.423C297.964 383.466 297.807 383.509 297.602 383.551C297.398 383.598 297.142 383.624 296.835 383.628C296.332 383.636 295.864 383.547 295.429 383.359C294.994 383.172 294.643 382.882 294.374 382.49C294.106 382.098 293.972 381.606 293.972 381.013V371.33ZM304.136 383.698C303.169 383.698 302.336 383.491 301.637 383.078C300.943 382.661 300.406 382.075 300.026 381.32C299.651 380.562 299.464 379.673 299.464 378.655C299.464 377.649 299.651 376.763 300.026 375.996C300.406 375.229 300.934 374.63 301.612 374.2C302.293 373.769 303.09 373.554 304.002 373.554C304.556 373.554 305.093 373.646 305.613 373.829C306.133 374.012 306.6 374.3 307.013 374.692C307.426 375.084 307.752 375.593 307.991 376.219C308.229 376.842 308.349 377.598 308.349 378.489V379.166H300.544V377.734H306.476C306.476 377.232 306.374 376.786 306.169 376.398C305.965 376.006 305.677 375.697 305.306 375.472C304.94 375.246 304.509 375.133 304.015 375.133C303.478 375.133 303.009 375.265 302.609 375.529C302.212 375.789 301.906 376.13 301.688 376.552C301.475 376.969 301.369 377.423 301.369 377.913V379.032C301.369 379.688 301.484 380.246 301.714 380.707C301.948 381.167 302.274 381.518 302.692 381.761C303.109 382 303.597 382.119 304.156 382.119C304.518 382.119 304.848 382.068 305.146 381.966C305.445 381.859 305.703 381.702 305.92 381.493C306.137 381.284 306.303 381.026 306.418 380.719L308.227 381.045C308.082 381.578 307.823 382.045 307.448 382.445C307.077 382.842 306.61 383.151 306.048 383.372C305.489 383.589 304.852 383.698 304.136 383.698ZM310.469 383.5V373.682H312.317V375.241H312.419C312.598 374.713 312.913 374.298 313.365 373.995C313.821 373.688 314.337 373.535 314.912 373.535C315.031 373.535 315.172 373.539 315.334 373.548C315.5 373.556 315.63 373.567 315.724 373.58V375.408C315.647 375.386 315.511 375.363 315.315 375.337C315.119 375.308 314.922 375.293 314.726 375.293C314.275 375.293 313.872 375.388 313.518 375.58C313.169 375.768 312.892 376.03 312.687 376.366C312.483 376.699 312.381 377.078 312.381 377.504V383.5H310.469ZM319.289 377.67V383.5H317.378V373.682H319.212V375.28H319.334C319.559 374.76 319.913 374.342 320.395 374.027C320.88 373.712 321.492 373.554 322.229 373.554C322.898 373.554 323.484 373.695 323.987 373.976C324.49 374.253 324.88 374.666 325.157 375.216C325.434 375.766 325.572 376.445 325.572 377.255V383.5H323.661V377.485C323.661 376.773 323.476 376.217 323.105 375.817C322.734 375.412 322.225 375.21 321.577 375.21C321.134 375.21 320.74 375.305 320.395 375.497C320.054 375.689 319.783 375.97 319.583 376.341C319.387 376.707 319.289 377.151 319.289 377.67ZM330.993 383.717C330.37 383.717 329.808 383.602 329.305 383.372C328.802 383.138 328.404 382.799 328.11 382.356C327.82 381.913 327.675 381.369 327.675 380.726C327.675 380.172 327.782 379.716 327.995 379.358C328.208 379 328.495 378.717 328.858 378.508C329.22 378.299 329.625 378.141 330.072 378.035C330.52 377.928 330.976 377.847 331.44 377.792C332.028 377.724 332.505 377.668 332.872 377.626C333.238 377.579 333.505 377.504 333.671 377.402C333.837 377.3 333.92 377.134 333.92 376.903V376.859C333.92 376.3 333.763 375.868 333.447 375.561C333.136 375.254 332.672 375.101 332.054 375.101C331.41 375.101 330.903 375.244 330.532 375.529C330.166 375.81 329.912 376.124 329.772 376.469L327.976 376.06C328.189 375.463 328.5 374.982 328.909 374.615C329.322 374.244 329.797 373.976 330.334 373.81C330.871 373.639 331.436 373.554 332.028 373.554C332.42 373.554 332.836 373.601 333.275 373.695C333.718 373.784 334.131 373.95 334.515 374.193C334.902 374.436 335.22 374.783 335.467 375.235C335.714 375.683 335.838 376.264 335.838 376.98V383.5H333.971V382.158H333.895C333.771 382.405 333.586 382.648 333.339 382.886C333.091 383.125 332.774 383.323 332.386 383.481C331.998 383.638 331.534 383.717 330.993 383.717ZM331.408 382.183C331.937 382.183 332.388 382.079 332.763 381.87C333.142 381.661 333.43 381.388 333.626 381.052C333.826 380.711 333.927 380.347 333.927 379.959V378.693C333.858 378.761 333.726 378.825 333.53 378.885C333.339 378.94 333.119 378.989 332.872 379.032C332.625 379.07 332.384 379.107 332.15 379.141C331.915 379.17 331.719 379.196 331.562 379.217C331.191 379.264 330.852 379.343 330.545 379.454C330.243 379.565 330 379.724 329.816 379.933C329.638 380.138 329.548 380.411 329.548 380.751C329.548 381.224 329.723 381.582 330.072 381.825C330.422 382.064 330.867 382.183 331.408 382.183ZM340.295 370.409V383.5H338.383V370.409H340.295ZM275.537 410.5V397.409H280.203C281.217 397.409 282.059 397.584 282.728 397.933C283.401 398.283 283.904 398.766 284.236 399.384C284.569 399.998 284.735 400.707 284.735 401.513C284.735 402.314 284.567 403.019 284.23 403.629C283.898 404.234 283.395 404.705 282.722 405.041C282.052 405.378 281.211 405.546 280.197 405.546H276.662V403.846H280.018C280.657 403.846 281.177 403.754 281.577 403.571C281.982 403.388 282.278 403.121 282.466 402.772C282.653 402.423 282.747 402.003 282.747 401.513C282.747 401.018 282.651 400.59 282.459 400.228C282.272 399.866 281.976 399.589 281.571 399.397C281.17 399.201 280.644 399.103 279.992 399.103H277.512V410.5H275.537ZM281.999 404.594L285.234 410.5H282.984L279.813 404.594H281.999ZM291.093 410.698C290.126 410.698 289.293 410.491 288.594 410.078C287.9 409.661 287.363 409.075 286.983 408.32C286.608 407.562 286.421 406.673 286.421 405.655C286.421 404.649 286.608 403.763 286.983 402.996C287.363 402.229 287.891 401.63 288.569 401.2C289.25 400.769 290.047 400.554 290.959 400.554C291.513 400.554 292.05 400.646 292.57 400.829C293.09 401.012 293.557 401.3 293.97 401.692C294.383 402.084 294.709 402.593 294.948 403.219C295.187 403.842 295.306 404.598 295.306 405.489V406.166H287.501V404.734H293.433C293.433 404.232 293.331 403.786 293.126 403.398C292.922 403.006 292.634 402.697 292.263 402.472C291.897 402.246 291.466 402.133 290.972 402.133C290.435 402.133 289.966 402.265 289.566 402.529C289.169 402.789 288.863 403.13 288.645 403.552C288.432 403.969 288.326 404.423 288.326 404.913V406.032C288.326 406.688 288.441 407.246 288.671 407.707C288.905 408.167 289.231 408.518 289.649 408.761C290.066 409 290.554 409.119 291.113 409.119C291.475 409.119 291.805 409.068 292.103 408.966C292.402 408.859 292.66 408.702 292.877 408.493C293.094 408.284 293.26 408.026 293.375 407.719L295.184 408.045C295.04 408.578 294.78 409.045 294.405 409.445C294.034 409.842 293.567 410.151 293.005 410.372C292.446 410.589 291.809 410.698 291.093 410.698ZM302.099 400.682V402.216H296.551V400.682H302.099ZM298.072 410.5V399.544C298.072 398.93 298.206 398.421 298.475 398.016C298.743 397.607 299.099 397.303 299.542 397.102C299.985 396.898 300.467 396.795 300.987 396.795C301.37 396.795 301.698 396.827 301.971 396.891C302.244 396.951 302.446 397.006 302.578 397.058L302.131 398.604C302.041 398.579 301.926 398.549 301.786 398.515C301.645 398.477 301.475 398.457 301.274 398.457C300.81 398.457 300.478 398.572 300.277 398.803C300.081 399.033 299.983 399.365 299.983 399.8V410.5H298.072ZM307.916 410.698C306.948 410.698 306.115 410.491 305.416 410.078C304.722 409.661 304.185 409.075 303.806 408.32C303.431 407.562 303.243 406.673 303.243 405.655C303.243 404.649 303.431 403.763 303.806 402.996C304.185 402.229 304.713 401.63 305.391 401.2C306.073 400.769 306.87 400.554 307.782 400.554C308.335 400.554 308.872 400.646 309.392 400.829C309.912 401.012 310.379 401.3 310.792 401.692C311.206 402.084 311.532 402.593 311.77 403.219C312.009 403.842 312.128 404.598 312.128 405.489V406.166H304.323V404.734H310.255C310.255 404.232 310.153 403.786 309.948 403.398C309.744 403.006 309.456 402.697 309.085 402.472C308.719 402.246 308.289 402.133 307.794 402.133C307.257 402.133 306.789 402.265 306.388 402.529C305.992 402.789 305.685 403.13 305.468 403.552C305.255 403.969 305.148 404.423 305.148 404.913V406.032C305.148 406.688 305.263 407.246 305.493 407.707C305.728 408.167 306.054 408.518 306.471 408.761C306.889 409 307.377 409.119 307.935 409.119C308.297 409.119 308.627 409.068 308.926 408.966C309.224 408.859 309.482 408.702 309.699 408.493C309.916 408.284 310.083 408.026 310.198 407.719L312.007 408.045C311.862 408.578 311.602 409.045 311.227 409.445C310.856 409.842 310.389 410.151 309.827 410.372C309.269 410.589 308.632 410.698 307.916 410.698ZM314.249 410.5V400.682H316.096V402.241H316.198C316.377 401.713 316.693 401.298 317.144 400.995C317.6 400.688 318.116 400.535 318.691 400.535C318.81 400.535 318.951 400.539 319.113 400.548C319.279 400.556 319.409 400.567 319.503 400.58V402.408C319.426 402.386 319.29 402.363 319.094 402.337C318.898 402.308 318.702 402.293 318.506 402.293C318.054 402.293 317.651 402.388 317.298 402.58C316.948 402.768 316.671 403.03 316.467 403.366C316.262 403.699 316.16 404.078 316.16 404.504V410.5H314.249ZM321.157 410.5V400.682H323.004V402.241H323.106C323.285 401.713 323.601 401.298 324.052 400.995C324.508 400.688 325.024 400.535 325.599 400.535C325.719 400.535 325.859 400.539 326.021 400.548C326.187 400.556 326.317 400.567 326.411 400.58V402.408C326.334 402.386 326.198 402.363 326.002 402.337C325.806 402.308 325.61 402.293 325.414 402.293C324.962 402.293 324.56 402.388 324.206 402.58C323.856 402.768 323.579 403.03 323.375 403.366C323.17 403.699 323.068 404.078 323.068 404.504V410.5H321.157ZM331.945 410.698C330.978 410.698 330.145 410.491 329.446 410.078C328.751 409.661 328.214 409.075 327.835 408.32C327.46 407.562 327.272 406.673 327.272 405.655C327.272 404.649 327.46 403.763 327.835 402.996C328.214 402.229 328.743 401.63 329.42 401.2C330.102 400.769 330.899 400.554 331.811 400.554C332.365 400.554 332.902 400.646 333.422 400.829C333.941 401.012 334.408 401.3 334.821 401.692C335.235 402.084 335.561 402.593 335.799 403.219C336.038 403.842 336.157 404.598 336.157 405.489V406.166H328.353V404.734H334.285C334.285 404.232 334.182 403.786 333.978 403.398C333.773 403.006 333.486 402.697 333.115 402.472C332.748 402.246 332.318 402.133 331.824 402.133C331.287 402.133 330.818 402.265 330.417 402.529C330.021 402.789 329.714 403.13 329.497 403.552C329.284 403.969 329.177 404.423 329.177 404.913V406.032C329.177 406.688 329.292 407.246 329.522 407.707C329.757 408.167 330.083 408.518 330.5 408.761C330.918 409 331.406 409.119 331.964 409.119C332.326 409.119 332.657 409.068 332.955 408.966C333.253 408.859 333.511 408.702 333.728 408.493C333.946 408.284 334.112 408.026 334.227 407.719L336.036 408.045C335.891 408.578 335.631 409.045 335.256 409.445C334.885 409.842 334.419 410.151 333.856 410.372C333.298 410.589 332.661 410.698 331.945 410.698ZM338.278 410.5V400.682H340.125V402.241H340.228C340.407 401.713 340.722 401.298 341.174 400.995C341.63 400.688 342.145 400.535 342.72 400.535C342.84 400.535 342.98 400.539 343.142 400.548C343.309 400.556 343.438 400.567 343.532 400.58V402.408C343.456 402.386 343.319 402.363 343.123 402.337C342.927 402.308 342.731 402.293 342.535 402.293C342.083 402.293 341.681 402.388 341.327 402.58C340.978 402.768 340.701 403.03 340.496 403.366C340.291 403.699 340.189 404.078 340.189 404.504V410.5H338.278Z" fill="black"/>
<rect x="1.5" y="167" width="121" height="121" rx="60.5" fill="white"/>
<rect x="1.5" y="167" width="121" height="121" rx="60.5" stroke="#171616" stroke-width="2"/>
<path d="M21.0263 220.909H22.995V230.19C22.995 231.03 22.8288 231.748 22.4964 232.344C22.1683 232.941 21.706 233.397 21.1094 233.712C20.5128 234.023 19.8139 234.179 19.0128 234.179C18.2756 234.179 17.6129 234.045 17.0249 233.776C16.4411 233.508 15.9787 233.118 15.6378 232.607C15.3011 232.091 15.1328 231.464 15.1328 230.727H17.0952C17.0952 231.089 17.1783 231.403 17.3445 231.667C17.5149 231.931 17.7472 232.138 18.0412 232.287C18.3395 232.432 18.6804 232.504 19.0639 232.504C19.4815 232.504 19.8352 232.417 20.125 232.242C20.419 232.063 20.6428 231.801 20.7962 231.456C20.9496 231.111 21.0263 230.689 21.0263 230.19V220.909ZM29.8521 234.198C28.9316 234.198 28.1284 233.987 27.4423 233.565C26.7562 233.143 26.2235 232.553 25.8443 231.795C25.465 231.036 25.2754 230.15 25.2754 229.136C25.2754 228.117 25.465 227.227 25.8443 226.464C26.2235 225.701 26.7562 225.109 27.4423 224.687C28.1284 224.265 28.9316 224.054 29.8521 224.054C30.7725 224.054 31.5758 224.265 32.2619 224.687C32.948 225.109 33.4806 225.701 33.8599 226.464C34.2392 227.227 34.4288 228.117 34.4288 229.136C34.4288 230.15 34.2392 231.036 33.8599 231.795C33.4806 232.553 32.948 233.143 32.2619 233.565C31.5758 233.987 30.7725 234.198 29.8521 234.198ZM29.8585 232.594C30.4551 232.594 30.9494 232.436 31.3414 232.121C31.7335 231.805 32.0233 231.386 32.2108 230.862C32.4025 230.337 32.4984 229.76 32.4984 229.129C32.4984 228.503 32.4025 227.928 32.2108 227.403C32.0233 226.875 31.7335 226.451 31.3414 226.131C30.9494 225.812 30.4551 225.652 29.8585 225.652C29.2576 225.652 28.7591 225.812 28.3627 226.131C27.9707 226.451 27.6788 226.875 27.487 227.403C27.2995 227.928 27.2058 228.503 27.2058 229.129C27.2058 229.76 27.2995 230.337 27.487 230.862C27.6788 231.386 27.9707 231.805 28.3627 232.121C28.7591 232.436 29.2576 232.594 29.8585 232.594ZM36.7156 234V220.909H38.6268V225.773H38.7418C38.8526 225.569 39.0124 225.332 39.2212 225.064C39.43 224.795 39.7198 224.561 40.0906 224.361C40.4613 224.156 40.9513 224.054 41.5607 224.054C42.3533 224.054 43.0607 224.254 43.6829 224.655C44.305 225.055 44.793 225.633 45.1467 226.387C45.5046 227.141 45.6836 228.049 45.6836 229.11C45.6836 230.171 45.5067 231.081 45.1531 231.839C44.7994 232.594 44.3136 233.175 43.6957 233.585C43.0778 233.989 42.3725 234.192 41.5799 234.192C40.9833 234.192 40.4954 234.092 40.1161 233.891C39.7411 233.691 39.4471 233.457 39.234 233.188C39.021 232.92 38.8569 232.681 38.7418 232.472H38.582V234H36.7156ZM38.5884 229.091C38.5884 229.781 38.6886 230.386 38.8888 230.906C39.0891 231.426 39.3789 231.833 39.7582 232.127C40.1374 232.417 40.6019 232.562 41.1516 232.562C41.7227 232.562 42.1999 232.411 42.5835 232.108C42.967 231.801 43.2567 231.386 43.4528 230.862C43.6531 230.337 43.7532 229.747 43.7532 229.091C43.7532 228.443 43.6552 227.862 43.4592 227.346C43.2674 226.83 42.9776 226.423 42.5898 226.125C42.2063 225.827 41.7269 225.678 41.1516 225.678C40.5977 225.678 40.1289 225.82 39.7454 226.106C39.3661 226.391 39.0785 226.79 38.8825 227.301C38.6864 227.812 38.5884 228.409 38.5884 229.091ZM59.9506 226.579L58.2184 226.886C58.146 226.664 58.0309 226.453 57.8732 226.253C57.7198 226.053 57.511 225.888 57.2468 225.761C56.9826 225.633 56.6523 225.569 56.256 225.569C55.7148 225.569 55.2631 225.69 54.9009 225.933C54.5387 226.172 54.3576 226.481 54.3576 226.86C54.3576 227.188 54.479 227.452 54.7219 227.653C54.9648 227.853 55.3569 228.017 55.8981 228.145L57.4577 228.503C58.3612 228.712 59.0344 229.033 59.4776 229.468C59.9208 229.903 60.1424 230.467 60.1424 231.162C60.1424 231.75 59.9719 232.274 59.631 232.734C59.2944 233.19 58.8235 233.548 58.2184 233.808C57.6175 234.068 56.9208 234.198 56.1282 234.198C55.0288 234.198 54.1317 233.964 53.4371 233.495C52.7425 233.022 52.3164 232.351 52.1587 231.482L54.006 231.2C54.1211 231.682 54.3576 232.046 54.7156 232.293C55.0735 232.536 55.5401 232.658 56.1154 232.658C56.7418 232.658 57.2425 232.528 57.6175 232.268C57.9925 232.004 58.18 231.682 58.18 231.303C58.18 230.996 58.065 230.738 57.8349 230.529C57.609 230.32 57.2617 230.163 56.793 230.056L55.131 229.692C54.2148 229.483 53.5373 229.151 53.0984 228.695C52.6637 228.239 52.4464 227.661 52.4464 226.962C52.4464 226.383 52.6083 225.876 52.9322 225.441C53.256 225.006 53.7035 224.668 54.2745 224.425C54.8455 224.178 55.4996 224.054 56.2369 224.054C57.2979 224.054 58.1332 224.284 58.7425 224.744C59.3519 225.2 59.7546 225.812 59.9506 226.579ZM66.4753 234.198C65.508 234.198 64.6749 233.991 63.976 233.578C63.2814 233.161 62.7445 232.575 62.3652 231.82C61.9902 231.062 61.8027 230.173 61.8027 229.155C61.8027 228.149 61.9902 227.263 62.3652 226.496C62.7445 225.729 63.2729 225.13 63.9505 224.7C64.6323 224.269 65.4292 224.054 66.3411 224.054C66.8951 224.054 67.432 224.146 67.9519 224.329C68.4718 224.512 68.9384 224.8 69.3517 225.192C69.7651 225.584 70.0911 226.093 70.3297 226.719C70.5684 227.342 70.6877 228.098 70.6877 228.989V229.666H62.883V228.234H68.8148C68.8148 227.732 68.7125 227.286 68.508 226.898C68.3034 226.506 68.0158 226.197 67.6451 225.972C67.2786 225.746 66.8482 225.633 66.3539 225.633C65.8169 225.633 65.3482 225.765 64.9476 226.029C64.5513 226.289 64.2445 226.63 64.0272 227.052C63.8141 227.469 63.7076 227.923 63.7076 228.413V229.532C63.7076 230.188 63.8226 230.746 64.0527 231.207C64.2871 231.667 64.6131 232.018 65.0307 232.261C65.4483 232.5 65.9363 232.619 66.4945 232.619C66.8567 232.619 67.187 232.568 67.4853 232.466C67.7836 232.359 68.0414 232.202 68.2587 231.993C68.476 231.784 68.6422 231.526 68.7573 231.219L70.5662 231.545C70.4213 232.078 70.1614 232.545 69.7864 232.945C69.4157 233.342 68.949 233.651 68.3865 233.872C67.8283 234.089 67.1912 234.198 66.4753 234.198ZM77.0398 234.198C76.0724 234.198 75.2393 233.991 74.5405 233.578C73.8459 233.161 73.3089 232.575 72.9297 231.82C72.5547 231.062 72.3672 230.173 72.3672 229.155C72.3672 228.149 72.5547 227.263 72.9297 226.496C73.3089 225.729 73.8374 225.13 74.5149 224.7C75.1967 224.269 75.9936 224.054 76.9055 224.054C77.4595 224.054 77.9964 224.146 78.5163 224.329C79.0362 224.512 79.5028 224.8 79.9162 225.192C80.3295 225.584 80.6555 226.093 80.8942 226.719C81.1328 227.342 81.2521 228.098 81.2521 228.989V229.666H73.4474V228.234H79.3793C79.3793 227.732 79.277 227.286 79.0724 226.898C78.8679 226.506 78.5803 226.197 78.2095 225.972C77.843 225.746 77.4126 225.633 76.9183 225.633C76.3814 225.633 75.9126 225.765 75.5121 226.029C75.1158 226.289 74.8089 226.63 74.5916 227.052C74.3786 227.469 74.272 227.923 74.272 228.413V229.532C74.272 230.188 74.3871 230.746 74.6172 231.207C74.8516 231.667 75.1776 232.018 75.5952 232.261C76.0128 232.5 76.5007 232.619 77.0589 232.619C77.4212 232.619 77.7514 232.568 78.0497 232.466C78.348 232.359 78.6058 232.202 78.8232 231.993C79.0405 231.784 79.2067 231.526 79.3217 231.219L81.1307 231.545C80.9858 232.078 80.7259 232.545 80.3509 232.945C79.9801 233.342 79.5135 233.651 78.951 233.872C78.3928 234.089 77.7557 234.198 77.0398 234.198ZM85.1305 230.67L85.1177 228.337H85.4501L89.362 224.182H91.6504L87.1887 228.912H86.8883L85.1305 230.67ZM83.3727 234V220.909H85.2839V234H83.3727ZM89.573 234L86.0574 229.334L87.3741 227.998L91.9189 234H89.573ZM97.2195 234.198C96.2521 234.198 95.419 233.991 94.7202 233.578C94.0256 233.161 93.4886 232.575 93.1094 231.82C92.7344 231.062 92.5469 230.173 92.5469 229.155C92.5469 228.149 92.7344 227.263 93.1094 226.496C93.4886 225.729 94.017 225.13 94.6946 224.7C95.3764 224.269 96.1733 224.054 97.0852 224.054C97.6392 224.054 98.1761 224.146 98.696 224.329C99.2159 224.512 99.6825 224.8 100.096 225.192C100.509 225.584 100.835 226.093 101.074 226.719C101.313 227.342 101.432 228.098 101.432 228.989V229.666H93.6271V228.234H99.5589C99.5589 227.732 99.4567 227.286 99.2521 226.898C99.0476 226.506 98.7599 226.197 98.3892 225.972C98.0227 225.746 97.5923 225.633 97.098 225.633C96.5611 225.633 96.0923 225.765 95.6918 226.029C95.2955 226.289 94.9886 226.63 94.7713 227.052C94.5582 227.469 94.4517 227.923 94.4517 228.413V229.532C94.4517 230.188 94.5668 230.746 94.7969 231.207C95.0312 231.667 95.3572 232.018 95.7749 232.261C96.1925 232.5 96.6804 232.619 97.2386 232.619C97.6009 232.619 97.9311 232.568 98.2294 232.466C98.5277 232.359 98.7855 232.202 99.0028 231.993C99.2202 231.784 99.3864 231.526 99.5014 231.219L101.31 231.545C101.165 232.078 100.906 232.545 100.531 232.945C100.16 233.342 99.6932 233.651 99.1307 233.872C98.5724 234.089 97.9354 234.198 97.2195 234.198ZM103.552 234V224.182H105.4V225.741H105.502C105.681 225.213 105.996 224.798 106.448 224.495C106.904 224.188 107.42 224.035 107.995 224.035C108.114 224.035 108.255 224.039 108.417 224.048C108.583 224.056 108.713 224.067 108.807 224.08V225.908C108.73 225.886 108.594 225.863 108.398 225.837C108.202 225.808 108.006 225.793 107.809 225.793C107.358 225.793 106.955 225.888 106.601 226.08C106.252 226.268 105.975 226.53 105.77 226.866C105.566 227.199 105.464 227.578 105.464 228.004V234H103.552Z" fill="#171616"/>
<rect x="493.5" y="167" width="174" height="120" rx="11" fill="white"/>
<rect x="493.5" y="167" width="174" height="120" rx="11" stroke="#171616" stroke-width="2"/>
<path d="M533.333 208.667V210.333H526.666C525.34 210.333 524.068 210.86 523.13 211.798C522.193 212.736 521.666 214.007 521.666 215.333V220.333C521.666 221.428 521.882 222.511 522.3 223.522C522.719 224.533 523.333 225.452 524.107 226.226C524.881 227 525.799 227.614 526.81 228.032C527.821 228.451 528.905 228.667 529.999 228.667H539.999C541.094 228.667 542.177 228.451 543.188 228.032C544.199 227.614 545.118 227 545.892 226.226C546.666 225.452 547.28 224.533 547.698 223.522C548.117 222.511 548.333 221.428 548.333 220.333V215.333C548.333 214.007 547.806 212.736 546.868 211.798C545.931 210.86 544.659 210.333 543.333 210.333H536.666V208.667H533.333ZM524.999 215.333C524.999 214.891 525.175 214.467 525.488 214.155C525.8 213.842 526.224 213.667 526.666 213.667H543.333C543.775 213.667 544.199 213.842 544.511 214.155C544.824 214.467 544.999 214.891 544.999 215.333V220.333C544.999 221.659 544.473 222.931 543.535 223.869C542.597 224.807 541.325 225.333 539.999 225.333H529.999C528.673 225.333 527.401 224.807 526.464 223.869C525.526 222.931 524.999 221.659 524.999 220.333V215.333ZM530.833 222C531.496 222 532.132 221.737 532.6 221.268C533.069 220.799 533.333 220.163 533.333 219.5C533.333 218.837 533.069 218.201 532.6 217.732C532.132 217.263 531.496 217 530.833 217C530.17 217 529.534 217.263 529.065 217.732C528.596 218.201 528.333 218.837 528.333 219.5C528.333 220.163 528.596 220.799 529.065 221.268C529.534 221.737 530.17 222 530.833 222ZM539.166 222C539.829 222 540.465 221.737 540.934 221.268C541.403 220.799 541.666 220.163 541.666 219.5C541.666 218.837 541.403 218.201 540.934 217.732C540.465 217.263 539.829 217 539.166 217C538.503 217 537.867 217.263 537.398 217.732C536.929 218.201 536.666 218.837 536.666 219.5C536.666 220.163 536.929 220.799 537.398 221.268C537.867 221.737 538.503 222 539.166 222ZM524.999 243.667C524.999 241.015 526.053 238.471 527.928 236.596C529.804 234.72 532.347 233.667 534.999 233.667C537.652 233.667 540.195 234.72 542.07 236.596C543.946 238.471 544.999 241.015 544.999 243.667H548.333C548.333 241.916 547.988 240.182 547.318 238.564C546.648 236.947 545.666 235.477 544.427 234.239C543.189 233.001 541.719 232.018 540.102 231.348C538.484 230.678 536.75 230.333 534.999 230.333C533.248 230.333 531.515 230.678 529.897 231.348C528.279 232.018 526.809 233.001 525.571 234.239C524.333 235.477 523.351 236.947 522.681 238.564C522.011 240.182 521.666 241.916 521.666 243.667H524.999Z" fill="black"/>
<path d="M567.544 220H565.447L570.158 206.909H572.44L577.151 220H575.055L571.354 209.287H571.251L567.544 220ZM567.896 214.874H574.697V216.536H567.896V214.874ZM581.017 206.909V220H579.042V206.909H581.017ZM588.657 206.909H591.054L595.222 217.085H595.375L599.543 206.909H601.94V220H600.06V210.527H599.939L596.078 219.981H594.518L590.658 210.521H590.536V220H588.657V206.909ZM608.794 220.198C607.873 220.198 607.07 219.987 606.384 219.565C605.698 219.143 605.165 218.553 604.786 217.795C604.406 217.036 604.217 216.15 604.217 215.136C604.217 214.117 604.406 213.227 604.786 212.464C605.165 211.701 605.698 211.109 606.384 210.687C607.07 210.265 607.873 210.054 608.794 210.054C609.714 210.054 610.517 210.265 611.203 210.687C611.889 211.109 612.422 211.701 612.801 212.464C613.181 213.227 613.37 214.117 613.37 215.136C613.37 216.15 613.181 217.036 612.801 217.795C612.422 218.553 611.889 219.143 611.203 219.565C610.517 219.987 609.714 220.198 608.794 220.198ZM608.8 218.594C609.396 218.594 609.891 218.436 610.283 218.121C610.675 217.805 610.965 217.386 611.152 216.862C611.344 216.337 611.44 215.76 611.44 215.129C611.44 214.503 611.344 213.928 611.152 213.403C610.965 212.875 610.675 212.451 610.283 212.131C609.891 211.812 609.396 211.652 608.8 211.652C608.199 211.652 607.7 211.812 607.304 212.131C606.912 212.451 606.62 212.875 606.428 213.403C606.241 213.928 606.147 214.503 606.147 215.129C606.147 215.76 606.241 216.337 606.428 216.862C606.62 217.386 606.912 217.805 607.304 218.121C607.7 218.436 608.199 218.594 608.8 218.594ZM619.639 220.198C618.689 220.198 617.871 219.983 617.185 219.553C616.503 219.118 615.979 218.519 615.612 217.756C615.246 216.994 615.062 216.12 615.062 215.136C615.062 214.138 615.25 213.259 615.625 212.496C616 211.729 616.528 211.13 617.21 210.7C617.892 210.269 618.695 210.054 619.62 210.054C620.366 210.054 621.031 210.192 621.614 210.469C622.198 210.742 622.669 211.126 623.027 211.62C623.389 212.114 623.604 212.692 623.673 213.352H621.812C621.71 212.892 621.476 212.496 621.109 212.163C620.747 211.831 620.261 211.665 619.652 211.665C619.119 211.665 618.653 211.805 618.252 212.087C617.856 212.364 617.547 212.76 617.325 213.276C617.104 213.787 616.993 214.392 616.993 215.091C616.993 215.807 617.102 216.425 617.319 216.945C617.536 217.464 617.843 217.867 618.239 218.153C618.64 218.438 619.111 218.581 619.652 218.581C620.014 218.581 620.342 218.515 620.636 218.383C620.935 218.246 621.184 218.053 621.384 217.801C621.589 217.55 621.732 217.247 621.812 216.893H623.673C623.604 217.528 623.398 218.095 623.053 218.594C622.707 219.092 622.245 219.484 621.665 219.77C621.09 220.055 620.415 220.198 619.639 220.198ZM627.474 216.67L627.461 214.337H627.794L631.706 210.182H633.994L629.532 214.912H629.232L627.474 216.67ZM625.716 220V206.909H627.628V220H625.716ZM631.917 220L628.401 215.334L629.718 213.998L634.263 220H631.917ZM568.413 233.909V247H566.438V233.909H568.413ZM573.048 241.17V247H571.136V237.182H572.971V238.78H573.092C573.318 238.26 573.672 237.842 574.153 237.527C574.639 237.212 575.251 237.054 575.988 237.054C576.657 237.054 577.243 237.195 577.746 237.476C578.249 237.753 578.638 238.166 578.915 238.716C579.192 239.266 579.331 239.945 579.331 240.755V247H577.42V240.985C577.42 240.273 577.234 239.717 576.864 239.317C576.493 238.912 575.984 238.71 575.336 238.71C574.893 238.71 574.499 238.805 574.153 238.997C573.813 239.189 573.542 239.47 573.342 239.841C573.146 240.207 573.048 240.651 573.048 241.17ZM586.477 237.182V238.716H581.114V237.182H586.477ZM582.553 234.83H584.464V244.117C584.464 244.488 584.519 244.767 584.63 244.955C584.741 245.138 584.884 245.263 585.058 245.332C585.237 245.396 585.431 245.428 585.64 245.428C585.793 245.428 585.928 245.417 586.043 245.396C586.158 245.374 586.247 245.357 586.311 245.344L586.656 246.923C586.545 246.966 586.388 247.009 586.183 247.051C585.979 247.098 585.723 247.124 585.416 247.128C584.913 247.136 584.445 247.047 584.01 246.859C583.575 246.672 583.224 246.382 582.955 245.99C582.687 245.598 582.553 245.106 582.553 244.513V234.83ZM592.718 247.198C591.75 247.198 590.917 246.991 590.218 246.578C589.524 246.161 588.987 245.575 588.607 244.82C588.232 244.062 588.045 243.173 588.045 242.155C588.045 241.149 588.232 240.263 588.607 239.496C588.987 238.729 589.515 238.13 590.193 237.7C590.874 237.269 591.671 237.054 592.583 237.054C593.137 237.054 593.674 237.146 594.194 237.329C594.714 237.512 595.181 237.8 595.594 238.192C596.007 238.584 596.333 239.093 596.572 239.719C596.811 240.342 596.93 241.098 596.93 241.989V242.666H589.125V241.234H595.057C595.057 240.732 594.955 240.286 594.75 239.898C594.546 239.506 594.258 239.197 593.887 238.972C593.521 238.746 593.09 238.633 592.596 238.633C592.059 238.633 591.59 238.765 591.19 239.029C590.794 239.289 590.487 239.63 590.269 240.052C590.056 240.469 589.95 240.923 589.95 241.413V242.532C589.95 243.188 590.065 243.746 590.295 244.207C590.529 244.667 590.855 245.018 591.273 245.261C591.691 245.5 592.178 245.619 592.737 245.619C593.099 245.619 593.429 245.568 593.727 245.466C594.026 245.359 594.284 245.202 594.501 244.993C594.718 244.784 594.884 244.526 594.999 244.219L596.808 244.545C596.664 245.078 596.404 245.545 596.029 245.945C595.658 246.342 595.191 246.651 594.629 246.872C594.07 247.089 593.433 247.198 592.718 247.198ZM599.05 247V237.182H600.898V238.741H601C601.179 238.213 601.494 237.798 601.946 237.495C602.402 237.188 602.918 237.035 603.493 237.035C603.612 237.035 603.753 237.039 603.915 237.048C604.081 237.056 604.211 237.067 604.305 237.08V238.908C604.228 238.886 604.092 238.863 603.896 238.837C603.7 238.808 603.504 238.793 603.308 238.793C602.856 238.793 602.453 238.888 602.099 239.08C601.75 239.268 601.473 239.53 601.268 239.866C601.064 240.199 600.962 240.578 600.962 241.004V247H599.05ZM614.657 237.182L611.096 247H609.051L605.484 237.182H607.536L610.022 244.737H610.125L612.605 237.182H614.657ZM616.453 247V237.182H618.364V247H616.453ZM617.418 235.667C617.086 235.667 616.8 235.556 616.561 235.335C616.327 235.109 616.21 234.84 616.21 234.529C616.21 234.214 616.327 233.945 616.561 233.724C616.8 233.498 617.086 233.385 617.418 233.385C617.75 233.385 618.034 233.498 618.268 233.724C618.507 233.945 618.626 234.214 618.626 234.529C618.626 234.84 618.507 235.109 618.268 235.335C618.034 235.556 617.75 235.667 617.418 235.667ZM625.167 247.198C624.199 247.198 623.366 246.991 622.667 246.578C621.973 246.161 621.436 245.575 621.057 244.82C620.682 244.062 620.494 243.173 620.494 242.155C620.494 241.149 620.682 240.263 621.057 239.496C621.436 238.729 621.964 238.13 622.642 237.7C623.324 237.269 624.121 237.054 625.032 237.054C625.586 237.054 626.123 237.146 626.643 237.329C627.163 237.512 627.63 237.8 628.043 238.192C628.456 238.584 628.782 239.093 629.021 239.719C629.26 240.342 629.379 241.098 629.379 241.989V242.666H621.574V241.234H627.506C627.506 240.732 627.404 240.286 627.199 239.898C626.995 239.506 626.707 239.197 626.336 238.972C625.97 238.746 625.54 238.633 625.045 238.633C624.508 238.633 624.04 238.765 623.639 239.029C623.243 239.289 622.936 239.63 622.719 240.052C622.506 240.469 622.399 240.923 622.399 241.413V242.532C622.399 243.188 622.514 243.746 622.744 244.207C622.979 244.667 623.305 245.018 623.722 245.261C624.14 245.5 624.628 245.619 625.186 245.619C625.548 245.619 625.878 245.568 626.177 245.466C626.475 245.359 626.733 245.202 626.95 244.993C627.167 244.784 627.334 244.526 627.449 244.219L629.258 244.545C629.113 245.078 628.853 245.545 628.478 245.945C628.107 246.342 627.64 246.651 627.078 246.872C626.52 247.089 625.883 247.198 625.167 247.198ZM633.611 247L630.721 237.182H632.697L634.621 244.392H634.716L636.647 237.182H638.622L640.54 244.36H640.635L642.547 237.182H644.522L641.639 247H639.689L637.695 239.911H637.548L635.554 247H633.611Z" fill="#171616"/>
<rect x="765.5" y="167" width="165" height="120" rx="11" fill="white"/>
<rect x="765.5" y="167" width="165" height="120" rx="11" stroke="#171616" stroke-width="2"/>
<path d="M779.913 220.409V233.5H777.938V220.409H779.913ZM784.548 227.67V233.5H782.636V223.682H784.471V225.28H784.592C784.818 224.76 785.172 224.342 785.653 224.027C786.139 223.712 786.751 223.554 787.488 223.554C788.157 223.554 788.743 223.695 789.246 223.976C789.749 224.253 790.138 224.666 790.415 225.216C790.692 225.766 790.831 226.445 790.831 227.255V233.5H788.92V227.485C788.92 226.773 788.734 226.217 788.364 225.817C787.993 225.412 787.484 225.21 786.836 225.21C786.393 225.21 785.999 225.305 785.653 225.497C785.313 225.689 785.042 225.97 784.842 226.341C784.646 226.707 784.548 227.151 784.548 227.67ZM797.977 223.682V225.216H792.614V223.682H797.977ZM794.053 221.33H795.964V230.617C795.964 230.988 796.019 231.267 796.13 231.455C796.241 231.638 796.384 231.763 796.558 231.832C796.737 231.896 796.931 231.928 797.14 231.928C797.293 231.928 797.428 231.917 797.543 231.896C797.658 231.874 797.747 231.857 797.811 231.844L798.156 233.423C798.045 233.466 797.888 233.509 797.683 233.551C797.479 233.598 797.223 233.624 796.916 233.628C796.413 233.636 795.945 233.547 795.51 233.359C795.075 233.172 794.724 232.882 794.455 232.49C794.187 232.098 794.053 231.606 794.053 231.013V221.33ZM804.218 233.698C803.25 233.698 802.417 233.491 801.718 233.078C801.024 232.661 800.487 232.075 800.107 231.32C799.732 230.562 799.545 229.673 799.545 228.655C799.545 227.649 799.732 226.763 800.107 225.996C800.487 225.229 801.015 224.63 801.693 224.2C802.374 223.769 803.171 223.554 804.083 223.554C804.637 223.554 805.174 223.646 805.694 223.829C806.214 224.012 806.681 224.3 807.094 224.692C807.507 225.084 807.833 225.593 808.072 226.219C808.311 226.842 808.43 227.598 808.43 228.489V229.166H800.625V227.734H806.557C806.557 227.232 806.455 226.786 806.25 226.398C806.046 226.006 805.758 225.697 805.387 225.472C805.021 225.246 804.59 225.133 804.096 225.133C803.559 225.133 803.09 225.265 802.69 225.529C802.294 225.789 801.987 226.13 801.769 226.552C801.556 226.969 801.45 227.423 801.45 227.913V229.032C801.45 229.688 801.565 230.246 801.795 230.707C802.029 231.167 802.355 231.518 802.773 231.761C803.191 232 803.678 232.119 804.237 232.119C804.599 232.119 804.929 232.068 805.227 231.966C805.526 231.859 805.784 231.702 806.001 231.493C806.218 231.284 806.384 231.026 806.499 230.719L808.308 231.045C808.164 231.578 807.904 232.045 807.529 232.445C807.158 232.842 806.691 233.151 806.129 233.372C805.57 233.589 804.933 233.698 804.218 233.698ZM810.55 233.5V223.682H812.398V225.241H812.5C812.679 224.713 812.994 224.298 813.446 223.995C813.902 223.688 814.418 223.535 814.993 223.535C815.112 223.535 815.253 223.539 815.415 223.548C815.581 223.556 815.711 223.567 815.805 223.58V225.408C815.728 225.386 815.592 225.363 815.396 225.337C815.2 225.308 815.004 225.293 814.808 225.293C814.356 225.293 813.953 225.388 813.599 225.58C813.25 225.768 812.973 226.03 812.768 226.366C812.564 226.699 812.462 227.078 812.462 227.504V233.5H810.55ZM826.157 223.682L822.596 233.5H820.551L816.984 223.682H819.036L821.522 231.237H821.625L824.105 223.682H826.157ZM827.953 233.5V223.682H829.864V233.5H827.953ZM828.918 222.167C828.586 222.167 828.3 222.056 828.061 221.835C827.827 221.609 827.71 221.34 827.71 221.029C827.71 220.714 827.827 220.445 828.061 220.224C828.3 219.998 828.586 219.885 828.918 219.885C829.25 219.885 829.534 219.998 829.768 220.224C830.007 220.445 830.126 220.714 830.126 221.029C830.126 221.34 830.007 221.609 829.768 221.835C829.534 222.056 829.25 222.167 828.918 222.167ZM836.667 233.698C835.699 233.698 834.866 233.491 834.167 233.078C833.473 232.661 832.936 232.075 832.557 231.32C832.182 230.562 831.994 229.673 831.994 228.655C831.994 227.649 832.182 226.763 832.557 225.996C832.936 225.229 833.464 224.63 834.142 224.2C834.824 223.769 835.621 223.554 836.532 223.554C837.086 223.554 837.623 223.646 838.143 223.829C838.663 224.012 839.13 224.3 839.543 224.692C839.956 225.084 840.282 225.593 840.521 226.219C840.76 226.842 840.879 227.598 840.879 228.489V229.166H833.074V227.734H839.006C839.006 227.232 838.904 226.786 838.699 226.398C838.495 226.006 838.207 225.697 837.836 225.472C837.47 225.246 837.04 225.133 836.545 225.133C836.008 225.133 835.54 225.265 835.139 225.529C834.743 225.789 834.436 226.13 834.219 226.552C834.006 226.969 833.899 227.423 833.899 227.913V229.032C833.899 229.688 834.014 230.246 834.244 230.707C834.479 231.167 834.805 231.518 835.222 231.761C835.64 232 836.128 232.119 836.686 232.119C837.048 232.119 837.378 232.068 837.677 231.966C837.975 231.859 838.233 231.702 838.45 231.493C838.667 231.284 838.834 231.026 838.949 230.719L840.758 231.045C840.613 231.578 840.353 232.045 839.978 232.445C839.607 232.842 839.14 233.151 838.578 233.372C838.02 233.589 837.383 233.698 836.667 233.698ZM845.111 233.5L842.221 223.682H844.197L846.121 230.892H846.216L848.147 223.682H850.122L852.04 230.86H852.135L854.047 223.682H856.022L853.139 233.5H851.189L849.195 226.411H849.048L847.054 233.5H845.111ZM862.753 233.5V220.409H867.419C868.433 220.409 869.275 220.584 869.944 220.933C870.617 221.283 871.12 221.766 871.452 222.384C871.785 222.998 871.951 223.707 871.951 224.513C871.951 225.314 871.782 226.019 871.446 226.629C871.113 227.234 870.611 227.705 869.937 228.041C869.268 228.378 868.427 228.546 867.412 228.546H863.878V226.846H867.233C867.873 226.846 868.393 226.754 868.793 226.571C869.198 226.388 869.494 226.121 869.682 225.772C869.869 225.423 869.963 225.003 869.963 224.513C869.963 224.018 869.867 223.59 869.675 223.228C869.488 222.866 869.192 222.589 868.787 222.397C868.386 222.201 867.86 222.103 867.208 222.103H864.728V233.5H862.753ZM869.215 227.594L872.449 233.5H870.199L867.029 227.594H869.215ZM878.309 233.698C877.342 233.698 876.509 233.491 875.81 233.078C875.115 232.661 874.578 232.075 874.199 231.32C873.824 230.562 873.637 229.673 873.637 228.655C873.637 227.649 873.824 226.763 874.199 225.996C874.578 225.229 875.107 224.63 875.784 224.2C876.466 223.769 877.263 223.554 878.175 223.554C878.729 223.554 879.266 223.646 879.786 223.829C880.306 224.012 880.772 224.3 881.186 224.692C881.599 225.084 881.925 225.593 882.164 226.219C882.402 226.842 882.522 227.598 882.522 228.489V229.166H874.717V227.734H880.649C880.649 227.232 880.547 226.786 880.342 226.398C880.137 226.006 879.85 225.697 879.479 225.472C879.113 225.246 878.682 225.133 878.188 225.133C877.651 225.133 877.182 225.265 876.782 225.529C876.385 225.789 876.078 226.13 875.861 226.552C875.648 226.969 875.542 227.423 875.542 227.913V229.032C875.542 229.688 875.657 230.246 875.887 230.707C876.121 231.167 876.447 231.518 876.865 231.761C877.282 232 877.77 232.119 878.328 232.119C878.691 232.119 879.021 232.068 879.319 231.966C879.618 231.859 879.875 231.702 880.093 231.493C880.31 231.284 880.476 231.026 880.591 230.719L882.4 231.045C882.255 231.578 881.995 232.045 881.62 232.445C881.25 232.842 880.783 233.151 880.221 233.372C879.662 233.589 879.025 233.698 878.309 233.698ZM884.642 237.182V223.682H886.509V225.273H886.669C886.779 225.069 886.939 224.832 887.148 224.564C887.357 224.295 887.646 224.061 888.017 223.861C888.388 223.656 888.878 223.554 889.487 223.554C890.28 223.554 890.987 223.754 891.61 224.155C892.232 224.555 892.72 225.133 893.073 225.887C893.431 226.641 893.61 227.549 893.61 228.61C893.61 229.671 893.433 230.581 893.08 231.339C892.726 232.094 892.24 232.675 891.622 233.085C891.004 233.489 890.299 233.692 889.507 233.692C888.91 233.692 888.422 233.592 888.043 233.391C887.668 233.191 887.374 232.957 887.161 232.688C886.948 232.42 886.784 232.181 886.669 231.972H886.553V237.182H884.642ZM886.515 228.591C886.515 229.281 886.615 229.886 886.816 230.406C887.016 230.926 887.306 231.333 887.685 231.627C888.064 231.917 888.529 232.062 889.078 232.062C889.649 232.062 890.127 231.911 890.51 231.608C890.894 231.301 891.183 230.886 891.379 230.362C891.58 229.837 891.68 229.247 891.68 228.591C891.68 227.943 891.582 227.362 891.386 226.846C891.194 226.33 890.904 225.923 890.517 225.625C890.133 225.327 889.654 225.178 889.078 225.178C888.524 225.178 888.056 225.32 887.672 225.606C887.293 225.891 887.005 226.29 886.809 226.801C886.613 227.312 886.515 227.909 886.515 228.591ZM899.887 233.698C898.967 233.698 898.164 233.487 897.477 233.065C896.791 232.643 896.259 232.053 895.879 231.295C895.5 230.536 895.311 229.65 895.311 228.636C895.311 227.617 895.5 226.727 895.879 225.964C896.259 225.201 896.791 224.609 897.477 224.187C898.164 223.765 898.967 223.554 899.887 223.554C900.808 223.554 901.611 223.765 902.297 224.187C902.983 224.609 903.516 225.201 903.895 225.964C904.274 226.727 904.464 227.617 904.464 228.636C904.464 229.65 904.274 230.536 903.895 231.295C903.516 232.053 902.983 232.643 902.297 233.065C901.611 233.487 900.808 233.698 899.887 233.698ZM899.894 232.094C900.49 232.094 900.985 231.936 901.377 231.621C901.769 231.305 902.058 230.886 902.246 230.362C902.438 229.837 902.534 229.26 902.534 228.629C902.534 228.003 902.438 227.428 902.246 226.903C902.058 226.375 901.769 225.951 901.377 225.631C900.985 225.312 900.49 225.152 899.894 225.152C899.293 225.152 898.794 225.312 898.398 225.631C898.006 225.951 897.714 226.375 897.522 226.903C897.335 227.428 897.241 228.003 897.241 228.629C897.241 229.26 897.335 229.837 897.522 230.362C897.714 230.886 898.006 231.305 898.398 231.621C898.794 231.936 899.293 232.094 899.894 232.094ZM906.597 233.5V223.682H908.445V225.241H908.547C908.726 224.713 909.041 224.298 909.493 223.995C909.949 223.688 910.464 223.535 911.04 223.535C911.159 223.535 911.3 223.539 911.462 223.548C911.628 223.556 911.758 223.567 911.852 223.58V225.408C911.775 225.386 911.638 225.363 911.442 225.337C911.246 225.308 911.05 225.293 910.854 225.293C910.403 225.293 910 225.388 909.646 225.58C909.297 225.768 909.02 226.03 908.815 226.366C908.611 226.699 908.509 227.078 908.509 227.504V233.5H906.597ZM918.669 223.682V225.216H913.306V223.682H918.669ZM914.744 221.33H916.655V230.617C916.655 230.988 916.711 231.267 916.821 231.455C916.932 231.638 917.075 231.763 917.25 231.832C917.429 231.896 917.623 231.928 917.831 231.928C917.985 231.928 918.119 231.917 918.234 231.896C918.349 231.874 918.439 231.857 918.502 231.844L918.848 233.423C918.737 233.466 918.579 233.509 918.375 233.551C918.17 233.598 917.914 233.624 917.608 233.628C917.105 233.636 916.636 233.547 916.201 233.359C915.767 233.172 915.415 232.882 915.147 232.49C914.878 232.098 914.744 231.606 914.744 231.013V221.33Z" fill="#171616"/>
<rect x="240.5" y="166" width="137" height="122" rx="39" fill="#0061FE"/>
<path d="M316.689 201.512C316.689 199.692 315.215 198.217 313.408 198.217H304.595C302.783 198.217 301.315 199.697 301.315 201.512V202.758H293.037V218.94L294.625 219.22V228.104H323.374V219.225L324.962 218.944V202.762H316.689V201.512ZM303.891 201.512C303.891 201.122 304.206 200.805 304.595 200.805H313.408C313.797 200.805 314.113 201.122 314.113 201.512V202.758H303.891V201.512ZM320.798 225.521H297.206V219.684L305.24 221.109V221.955C305.24 223.453 306.458 224.675 307.949 224.675H310.054C311.546 224.675 312.763 223.453 312.763 221.955V221.109L320.798 219.684V225.521ZM310.182 220.02V221.955C310.182 222.028 310.123 222.088 310.049 222.088H307.945C307.871 222.088 307.812 222.028 307.812 221.955V217.092C307.812 217.019 307.871 216.959 307.945 216.959H310.049C310.123 216.959 310.182 217.019 310.182 217.092V220.02ZM322.386 216.77L312.763 218.476V217.092C312.763 215.594 311.546 214.371 310.054 214.371H307.949C306.458 214.371 305.24 215.594 305.24 217.092V218.476L295.618 216.77V205.35H322.386V216.77Z" fill="white"/>
<path d="M299.026 238.409H300.995V247.69C300.995 248.53 300.829 249.248 300.496 249.844C300.168 250.441 299.706 250.897 299.109 251.212C298.513 251.523 297.814 251.679 297.013 251.679C296.276 251.679 295.613 251.545 295.025 251.276C294.441 251.008 293.979 250.618 293.638 250.107C293.301 249.591 293.133 248.964 293.133 248.227H295.095C295.095 248.589 295.178 248.903 295.344 249.167C295.515 249.431 295.747 249.638 296.041 249.787C296.339 249.932 296.68 250.004 297.064 250.004C297.482 250.004 297.835 249.917 298.125 249.742C298.419 249.563 298.643 249.301 298.796 248.956C298.95 248.611 299.026 248.189 299.026 247.69V238.409ZM307.852 251.698C306.932 251.698 306.128 251.487 305.442 251.065C304.756 250.643 304.224 250.053 303.844 249.295C303.465 248.536 303.275 247.65 303.275 246.636C303.275 245.617 303.465 244.727 303.844 243.964C304.224 243.201 304.756 242.609 305.442 242.187C306.128 241.765 306.932 241.554 307.852 241.554C308.773 241.554 309.576 241.765 310.262 242.187C310.948 242.609 311.481 243.201 311.86 243.964C312.239 244.727 312.429 245.617 312.429 246.636C312.429 247.65 312.239 248.536 311.86 249.295C311.481 250.053 310.948 250.643 310.262 251.065C309.576 251.487 308.773 251.698 307.852 251.698ZM307.858 250.094C308.455 250.094 308.949 249.936 309.341 249.621C309.733 249.305 310.023 248.886 310.211 248.362C310.403 247.837 310.498 247.26 310.498 246.629C310.498 246.003 310.403 245.428 310.211 244.903C310.023 244.375 309.733 243.951 309.341 243.631C308.949 243.312 308.455 243.152 307.858 243.152C307.258 243.152 306.759 243.312 306.363 243.631C305.971 243.951 305.679 244.375 305.487 244.903C305.3 245.428 305.206 246.003 305.206 246.629C305.206 247.26 305.3 247.837 305.487 248.362C305.679 248.886 305.971 249.305 306.363 249.621C306.759 249.936 307.258 250.094 307.858 250.094ZM314.716 251.5V238.409H316.627V243.273H316.742C316.853 243.069 317.012 242.832 317.221 242.564C317.43 242.295 317.72 242.061 318.091 241.861C318.461 241.656 318.951 241.554 319.561 241.554C320.353 241.554 321.061 241.754 321.683 242.155C322.305 242.555 322.793 243.133 323.147 243.887C323.505 244.641 323.684 245.549 323.684 246.61C323.684 247.671 323.507 248.581 323.153 249.339C322.799 250.094 322.314 250.675 321.696 251.085C321.078 251.489 320.373 251.692 319.58 251.692C318.983 251.692 318.495 251.592 318.116 251.391C317.741 251.191 317.447 250.957 317.234 250.688C317.021 250.42 316.857 250.181 316.742 249.972H316.582V251.5H314.716ZM316.588 246.591C316.588 247.281 316.689 247.886 316.889 248.406C317.089 248.926 317.379 249.333 317.758 249.627C318.137 249.917 318.602 250.062 319.152 250.062C319.723 250.062 320.2 249.911 320.583 249.608C320.967 249.301 321.257 248.886 321.453 248.362C321.653 247.837 321.753 247.247 321.753 246.591C321.753 245.943 321.655 245.362 321.459 244.846C321.267 244.33 320.978 243.923 320.59 243.625C320.206 243.327 319.727 243.178 319.152 243.178C318.598 243.178 318.129 243.32 317.745 243.606C317.366 243.891 317.078 244.29 316.882 244.801C316.686 245.312 316.588 245.909 316.588 246.591Z" fill="white"/>
<path d="M381 226C380.448 226 380 226.448 380 227C380 227.552 380.448 228 381 228V226ZM479 231.44C479 231.992 479.676 232.383 480.155 232.107L487.845 227.667C488.324 227.391 488.324 226.609 487.845 226.333L480.155 221.893C479.676 221.617 479 222.008 479 222.56V231.44ZM381 227V228H480V227V226H381V227Z" fill="#0061FE"/>
<path d="M309 291.5V325.5" stroke="#0061FE" stroke-width="2" stroke-linecap="round" stroke-linejoin="bevel" stroke-dasharray="4 4"/>
<path d="M127 226C126.448 226 126 226.448 126 227C126 227.552 126.448 228 127 228V226ZM227 231.44C227 231.992 227.676 232.383 228.155 232.107L235.845 227.667C236.324 227.391 236.324 226.609 235.845 226.333L228.155 221.893C227.676 221.617 227 222.008 227 222.56V231.44ZM127 227V228H228V227V226H127V227Z" fill="#0061FE"/>
<path d="M66.4402 302.5C66.9925 302.5 67.383 301.824 67.1068 301.345L62.6667 293.655C62.3905 293.176 61.6095 293.176 61.3333 293.655L56.8932 301.345C56.617 301.824 57.0075 302.5 57.5598 302.5H66.4402ZM234 394.94C234 395.492 234.676 395.883 235.155 395.607L242.845 391.167C243.324 390.891 243.324 390.109 242.845 389.833L235.155 385.393C234.676 385.117 234 385.508 234 386.06V394.94ZM62 301.5H61V366.5H62H63V301.5H62ZM86 390.5V391.5H235V390.5V389.5H86V390.5ZM62 366.5H61C61 380.307 72.1929 391.5 86 391.5V390.5V389.5C73.2975 389.5 63 379.203 63 366.5H62Z" fill="#0061FE"/>
<path d="M672 226C671.448 226 671 226.448 671 227C671 227.552 671.448 228 672 228V226ZM751 231.44C751 231.992 751.676 232.383 752.155 232.107L759.845 227.667C760.324 227.391 760.324 226.609 759.845 226.333L752.155 221.893C751.676 221.617 751 222.008 751 222.56V231.44ZM672 227V228H752V227V226H672V227Z" fill="#0061FE"/>
<path d="M672 226C671.448 226 671 226.448 671 227C671 227.552 671.448 228 672 228V226ZM751 231.44C751 231.992 751.676 232.383 752.155 232.107L759.845 227.667C760.324 227.391 760.324 226.609 759.845 226.333L752.155 221.893C751.676 221.617 751 222.008 751 222.56V231.44ZM672 227V228H752V227V226H672V227Z" fill="#0061FE"/>
<path d="M849 291.5C849 290.948 848.552 290.5 848 290.5C847.448 290.5 847 290.948 847 291.5H849ZM553.938 469C553.385 469 552.938 469.448 552.938 470C552.938 470.552 553.385 471 553.938 471V469ZM356.062 471C356.615 471 357.062 470.552 357.062 470C357.062 469.448 356.615 469 356.062 469V471ZM66.4402 302.5C66.9925 302.5 67.383 301.824 67.1068 301.345L62.6667 293.655C62.3905 293.176 61.6095 293.176 61.3333 293.655L56.8932 301.345C56.617 301.824 57.0075 302.5 57.5598 302.5H66.4402ZM848 291.5H847V446H848H849V291.5H848ZM824 470V469H553.938V470V471H824V470ZM356.062 470V469H86V470V471H356.062V470ZM62 446H63V301.5H62H61V446H62ZM86 470V469C73.2975 469 63 458.703 63 446H62H61C61 459.807 72.1929 471 86 471V470ZM848 446H847C847 458.703 836.703 469 824 469V470V471C837.807 471 849 459.807 849 446H848Z" fill="#0061FE"/>
<path d="M367.175 476.5H365.078L369.789 463.409H372.071L376.782 476.5H374.686L370.985 465.787H370.882L367.175 476.5ZM367.526 471.374H374.328V473.036H367.526V471.374ZM382.497 476.698C381.546 476.698 380.728 476.483 380.042 476.053C379.36 475.618 378.836 475.019 378.47 474.256C378.103 473.494 377.92 472.62 377.92 471.636C377.92 470.638 378.107 469.759 378.482 468.996C378.857 468.229 379.386 467.63 380.068 467.2C380.749 466.769 381.553 466.554 382.477 466.554C383.223 466.554 383.888 466.692 384.472 466.969C385.056 467.242 385.526 467.626 385.884 468.12C386.247 468.614 386.462 469.192 386.53 469.852H384.67C384.568 469.392 384.333 468.996 383.967 468.663C383.605 468.331 383.119 468.165 382.509 468.165C381.977 468.165 381.51 468.305 381.11 468.587C380.713 468.864 380.404 469.26 380.183 469.776C379.961 470.287 379.85 470.892 379.85 471.591C379.85 472.307 379.959 472.925 380.176 473.445C380.394 473.964 380.7 474.367 381.097 474.653C381.497 474.938 381.968 475.081 382.509 475.081C382.872 475.081 383.2 475.015 383.494 474.883C383.792 474.746 384.041 474.553 384.242 474.301C384.446 474.05 384.589 473.747 384.67 473.393H386.53C386.462 474.028 386.255 474.595 385.91 475.094C385.565 475.592 385.102 475.984 384.523 476.27C383.948 476.555 383.272 476.698 382.497 476.698ZM393.157 466.682V468.216H387.794V466.682H393.157ZM389.232 464.33H391.143V473.617C391.143 473.988 391.199 474.267 391.31 474.455C391.42 474.638 391.563 474.763 391.738 474.832C391.917 474.896 392.111 474.928 392.32 474.928C392.473 474.928 392.607 474.917 392.722 474.896C392.837 474.874 392.927 474.857 392.991 474.844L393.336 476.423C393.225 476.466 393.067 476.509 392.863 476.551C392.658 476.598 392.403 476.624 392.096 476.628C391.593 476.636 391.124 476.547 390.69 476.359C390.255 476.172 389.903 475.882 389.635 475.49C389.366 475.098 389.232 474.606 389.232 474.013V464.33ZM395.271 476.5V466.682H397.182V476.5H395.271ZM396.236 465.167C395.904 465.167 395.618 465.056 395.38 464.835C395.145 464.609 395.028 464.34 395.028 464.029C395.028 463.714 395.145 463.445 395.38 463.224C395.618 462.998 395.904 462.885 396.236 462.885C396.569 462.885 396.852 462.998 397.086 463.224C397.325 463.445 397.444 463.714 397.444 464.029C397.444 464.34 397.325 464.609 397.086 464.835C396.852 465.056 396.569 465.167 396.236 465.167ZM403.889 476.698C402.969 476.698 402.165 476.487 401.479 476.065C400.793 475.643 400.261 475.053 399.881 474.295C399.502 473.536 399.312 472.65 399.312 471.636C399.312 470.617 399.502 469.727 399.881 468.964C400.261 468.201 400.793 467.609 401.479 467.187C402.165 466.765 402.969 466.554 403.889 466.554C404.81 466.554 405.613 466.765 406.299 467.187C406.985 467.609 407.518 468.201 407.897 468.964C408.276 469.727 408.466 470.617 408.466 471.636C408.466 472.65 408.276 473.536 407.897 474.295C407.518 475.053 406.985 475.643 406.299 476.065C405.613 476.487 404.81 476.698 403.889 476.698ZM403.896 475.094C404.492 475.094 404.987 474.936 405.379 474.621C405.771 474.305 406.06 473.886 406.248 473.362C406.44 472.837 406.536 472.26 406.536 471.629C406.536 471.003 406.44 470.428 406.248 469.903C406.06 469.375 405.771 468.951 405.379 468.631C404.987 468.312 404.492 468.152 403.896 468.152C403.295 468.152 402.796 468.312 402.4 468.631C402.008 468.951 401.716 469.375 401.524 469.903C401.337 470.428 401.243 471.003 401.243 471.629C401.243 472.26 401.337 472.837 401.524 473.362C401.716 473.886 402.008 474.305 402.4 474.621C402.796 474.936 403.295 475.094 403.896 475.094ZM412.51 470.67V476.5H410.599V466.682H412.434V468.28H412.555C412.781 467.76 413.135 467.342 413.616 467.027C414.102 466.712 414.714 466.554 415.451 466.554C416.12 466.554 416.706 466.695 417.209 466.976C417.711 467.253 418.101 467.666 418.378 468.216C418.655 468.766 418.794 469.445 418.794 470.255V476.5H416.883V470.485C416.883 469.773 416.697 469.217 416.327 468.817C415.956 468.412 415.447 468.21 414.799 468.21C414.356 468.21 413.961 468.305 413.616 468.497C413.275 468.689 413.005 468.97 412.805 469.341C412.608 469.707 412.51 470.151 412.51 470.67ZM424.214 476.717C423.592 476.717 423.03 476.602 422.527 476.372C422.024 476.138 421.626 475.799 421.331 475.356C421.042 474.913 420.897 474.369 420.897 473.726C420.897 473.172 421.003 472.716 421.216 472.358C421.43 472 421.717 471.717 422.079 471.508C422.442 471.299 422.846 471.141 423.294 471.035C423.741 470.928 424.197 470.847 424.662 470.792C425.25 470.724 425.727 470.668 426.094 470.626C426.46 470.579 426.726 470.504 426.893 470.402C427.059 470.3 427.142 470.134 427.142 469.903V469.859C427.142 469.3 426.984 468.868 426.669 468.561C426.358 468.254 425.893 468.101 425.275 468.101C424.632 468.101 424.125 468.244 423.754 468.529C423.388 468.81 423.134 469.124 422.993 469.469L421.197 469.06C421.41 468.463 421.721 467.982 422.131 467.615C422.544 467.244 423.019 466.976 423.556 466.81C424.093 466.639 424.657 466.554 425.25 466.554C425.642 466.554 426.057 466.601 426.496 466.695C426.939 466.784 427.353 466.95 427.736 467.193C428.124 467.436 428.442 467.783 428.689 468.235C428.936 468.683 429.059 469.264 429.059 469.98V476.5H427.193V475.158H427.116C426.993 475.405 426.807 475.648 426.56 475.886C426.313 476.125 425.996 476.323 425.608 476.481C425.22 476.638 424.756 476.717 424.214 476.717ZM424.63 475.183C425.158 475.183 425.61 475.079 425.985 474.87C426.364 474.661 426.652 474.388 426.848 474.052C427.048 473.711 427.148 473.347 427.148 472.959V471.693C427.08 471.761 426.948 471.825 426.752 471.885C426.56 471.94 426.341 471.989 426.094 472.032C425.846 472.07 425.606 472.107 425.371 472.141C425.137 472.17 424.941 472.196 424.783 472.217C424.412 472.264 424.074 472.343 423.767 472.454C423.464 472.565 423.221 472.724 423.038 472.933C422.859 473.138 422.77 473.411 422.77 473.751C422.77 474.224 422.944 474.582 423.294 474.825C423.643 475.064 424.089 475.183 424.63 475.183ZM431.759 476.5V463.409H433.67V468.273H433.785C433.896 468.069 434.055 467.832 434.264 467.564C434.473 467.295 434.763 467.061 435.134 466.861C435.504 466.656 435.994 466.554 436.604 466.554C437.396 466.554 438.104 466.754 438.726 467.155C439.348 467.555 439.836 468.133 440.19 468.887C440.548 469.641 440.727 470.549 440.727 471.61C440.727 472.671 440.55 473.581 440.196 474.339C439.842 475.094 439.357 475.675 438.739 476.085C438.121 476.489 437.415 476.692 436.623 476.692C436.026 476.692 435.538 476.592 435.159 476.391C434.784 476.191 434.49 475.957 434.277 475.688C434.064 475.42 433.9 475.181 433.785 474.972H433.625V476.5H431.759ZM433.631 471.591C433.631 472.281 433.732 472.886 433.932 473.406C434.132 473.926 434.422 474.333 434.801 474.627C435.18 474.917 435.645 475.062 436.195 475.062C436.766 475.062 437.243 474.911 437.626 474.608C438.01 474.301 438.3 473.886 438.496 473.362C438.696 472.837 438.796 472.247 438.796 471.591C438.796 470.943 438.698 470.362 438.502 469.846C438.31 469.33 438.021 468.923 437.633 468.625C437.249 468.327 436.77 468.178 436.195 468.178C435.641 468.178 435.172 468.32 434.788 468.606C434.409 468.891 434.121 469.29 433.925 469.801C433.729 470.312 433.631 470.909 433.631 471.591ZM444.784 463.409V476.5H442.873V463.409H444.784ZM451.587 476.698C450.619 476.698 449.786 476.491 449.087 476.078C448.393 475.661 447.856 475.075 447.477 474.32C447.102 473.562 446.914 472.673 446.914 471.655C446.914 470.649 447.102 469.763 447.477 468.996C447.856 468.229 448.384 467.63 449.062 467.2C449.744 466.769 450.54 466.554 451.452 466.554C452.006 466.554 452.543 466.646 453.063 466.829C453.583 467.012 454.05 467.3 454.463 467.692C454.876 468.084 455.202 468.593 455.441 469.219C455.68 469.842 455.799 470.598 455.799 471.489V472.166H447.994V470.734H453.926C453.926 470.232 453.824 469.786 453.619 469.398C453.415 469.006 453.127 468.697 452.756 468.472C452.39 468.246 451.96 468.133 451.465 468.133C450.928 468.133 450.46 468.265 450.059 468.529C449.663 468.789 449.356 469.13 449.138 469.552C448.925 469.969 448.819 470.423 448.819 470.913V472.032C448.819 472.688 448.934 473.246 449.164 473.707C449.398 474.167 449.724 474.518 450.142 474.761C450.56 475 451.048 475.119 451.606 475.119C451.968 475.119 452.298 475.068 452.597 474.966C452.895 474.859 453.153 474.702 453.37 474.493C453.587 474.284 453.754 474.026 453.869 473.719L455.678 474.045C455.533 474.578 455.273 475.045 454.898 475.445C454.527 475.842 454.06 476.151 453.498 476.372C452.94 476.589 452.303 476.698 451.587 476.698ZM462.837 476.5V463.409H470.955V465.109H464.812V469.098H470.373V470.792H464.812V476.5H462.837ZM476.741 476.698C475.774 476.698 474.941 476.491 474.242 476.078C473.547 475.661 473.01 475.075 472.631 474.32C472.256 473.562 472.068 472.673 472.068 471.655C472.068 470.649 472.256 469.763 472.631 468.996C473.01 468.229 473.539 467.63 474.216 467.2C474.898 466.769 475.695 466.554 476.607 466.554C477.161 466.554 477.698 466.646 478.218 466.829C478.737 467.012 479.204 467.3 479.617 467.692C480.031 468.084 480.357 468.593 480.595 469.219C480.834 469.842 480.953 470.598 480.953 471.489V472.166H473.149V470.734H479.08C479.08 470.232 478.978 469.786 478.774 469.398C478.569 469.006 478.281 468.697 477.911 468.472C477.544 468.246 477.114 468.133 476.619 468.133C476.083 468.133 475.614 468.265 475.213 468.529C474.817 468.789 474.51 469.13 474.293 469.552C474.08 469.969 473.973 470.423 473.973 470.913V472.032C473.973 472.688 474.088 473.246 474.318 473.707C474.553 474.167 474.879 474.518 475.296 474.761C475.714 475 476.202 475.119 476.76 475.119C477.122 475.119 477.453 475.068 477.751 474.966C478.049 474.859 478.307 474.702 478.524 474.493C478.742 474.284 478.908 474.026 479.023 473.719L480.832 474.045C480.687 474.578 480.427 475.045 480.052 475.445C479.681 475.842 479.215 476.151 478.652 476.372C478.094 476.589 477.457 476.698 476.741 476.698ZM487.305 476.698C486.338 476.698 485.505 476.491 484.806 476.078C484.112 475.661 483.575 475.075 483.195 474.32C482.82 473.562 482.633 472.673 482.633 471.655C482.633 470.649 482.82 469.763 483.195 468.996C483.575 468.229 484.103 467.63 484.781 467.2C485.462 466.769 486.259 466.554 487.171 466.554C487.725 466.554 488.262 466.646 488.782 466.829C489.302 467.012 489.768 467.3 490.182 467.692C490.595 468.084 490.921 468.593 491.16 469.219C491.398 469.842 491.518 470.598 491.518 471.489V472.166H483.713V470.734H489.645C489.645 470.232 489.543 469.786 489.338 469.398C489.134 469.006 488.846 468.697 488.475 468.472C488.109 468.246 487.678 468.133 487.184 468.133C486.647 468.133 486.178 468.265 485.778 468.529C485.381 468.789 485.075 469.13 484.857 469.552C484.644 469.969 484.538 470.423 484.538 470.913V472.032C484.538 472.688 484.653 473.246 484.883 473.707C485.117 474.167 485.443 474.518 485.861 474.761C486.278 475 486.766 475.119 487.325 475.119C487.687 475.119 488.017 475.068 488.315 474.966C488.614 474.859 488.871 474.702 489.089 474.493C489.306 474.284 489.472 474.026 489.587 473.719L491.396 474.045C491.251 474.578 490.991 475.045 490.616 475.445C490.246 475.842 489.779 476.151 489.217 476.372C488.658 476.589 488.021 476.698 487.305 476.698ZM497.314 476.692C496.521 476.692 495.814 476.489 495.192 476.085C494.574 475.675 494.088 475.094 493.734 474.339C493.385 473.581 493.21 472.671 493.21 471.61C493.21 470.549 493.387 469.641 493.741 468.887C494.099 468.133 494.589 467.555 495.211 467.155C495.833 466.754 496.538 466.554 497.327 466.554C497.936 466.554 498.426 466.656 498.797 466.861C499.172 467.061 499.461 467.295 499.666 467.564C499.875 467.832 500.037 468.069 500.152 468.273H500.267V463.409H502.178V476.5H500.312V474.972H500.152C500.037 475.181 499.871 475.42 499.653 475.688C499.44 475.957 499.146 476.191 498.771 476.391C498.396 476.592 497.91 476.692 497.314 476.692ZM497.736 475.062C498.285 475.062 498.75 474.917 499.129 474.627C499.513 474.333 499.802 473.926 499.998 473.406C500.199 472.886 500.299 472.281 500.299 471.591C500.299 470.909 500.201 470.312 500.005 469.801C499.809 469.29 499.521 468.891 499.142 468.606C498.763 468.32 498.294 468.178 497.736 468.178C497.16 468.178 496.681 468.327 496.297 468.625C495.914 468.923 495.624 469.33 495.428 469.846C495.236 470.362 495.14 470.943 495.14 471.591C495.14 472.247 495.238 472.837 495.434 473.362C495.631 473.886 495.92 474.301 496.304 474.608C496.692 474.911 497.169 475.062 497.736 475.062ZM505.059 476.5V463.409H506.971V468.273H507.086C507.196 468.069 507.356 467.832 507.565 467.564C507.774 467.295 508.064 467.061 508.434 466.861C508.805 466.656 509.295 466.554 509.904 466.554C510.697 466.554 511.404 466.754 512.027 467.155C512.649 467.555 513.137 468.133 513.49 468.887C513.848 469.641 514.027 470.549 514.027 471.61C514.027 472.671 513.85 473.581 513.497 474.339C513.143 475.094 512.657 475.675 512.039 476.085C511.422 476.489 510.716 476.692 509.924 476.692C509.327 476.692 508.839 476.592 508.46 476.391C508.085 476.191 507.791 475.957 507.578 475.688C507.365 475.42 507.201 475.181 507.086 474.972H506.926V476.5H505.059ZM506.932 471.591C506.932 472.281 507.032 472.886 507.233 473.406C507.433 473.926 507.723 474.333 508.102 474.627C508.481 474.917 508.946 475.062 509.495 475.062C510.066 475.062 510.544 474.911 510.927 474.608C511.311 474.301 511.6 473.886 511.797 473.362C511.997 472.837 512.097 472.247 512.097 471.591C512.097 470.943 511.999 470.362 511.803 469.846C511.611 469.33 511.321 468.923 510.934 468.625C510.55 468.327 510.071 468.178 509.495 468.178C508.941 468.178 508.473 468.32 508.089 468.606C507.71 468.891 507.422 469.29 507.226 469.801C507.03 470.312 506.932 470.909 506.932 471.591ZM519.031 476.717C518.409 476.717 517.846 476.602 517.343 476.372C516.84 476.138 516.442 475.799 516.148 475.356C515.858 474.913 515.713 474.369 515.713 473.726C515.713 473.172 515.82 472.716 516.033 472.358C516.246 472 516.534 471.717 516.896 471.508C517.258 471.299 517.663 471.141 518.11 471.035C518.558 470.928 519.014 470.847 519.478 470.792C520.066 470.724 520.544 470.668 520.91 470.626C521.276 470.579 521.543 470.504 521.709 470.402C521.875 470.3 521.958 470.134 521.958 469.903V469.859C521.958 469.3 521.801 468.868 521.485 468.561C521.174 468.254 520.71 468.101 520.092 468.101C519.448 468.101 518.941 468.244 518.57 468.529C518.204 468.81 517.95 469.124 517.81 469.469L516.014 469.06C516.227 468.463 516.538 467.982 516.947 467.615C517.36 467.244 517.835 466.976 518.372 466.81C518.909 466.639 519.474 466.554 520.066 466.554C520.458 466.554 520.874 466.601 521.313 466.695C521.756 466.784 522.169 466.95 522.553 467.193C522.941 467.436 523.258 467.783 523.505 468.235C523.752 468.683 523.876 469.264 523.876 469.98V476.5H522.009V475.158H521.933C521.809 475.405 521.624 475.648 521.377 475.886C521.129 476.125 520.812 476.323 520.424 476.481C520.036 476.638 519.572 476.717 519.031 476.717ZM519.446 475.183C519.975 475.183 520.426 475.079 520.801 474.87C521.181 474.661 521.468 474.388 521.664 474.052C521.865 473.711 521.965 473.347 521.965 472.959V471.693C521.896 471.761 521.764 471.825 521.568 471.885C521.377 471.94 521.157 471.989 520.91 472.032C520.663 472.07 520.422 472.107 520.188 472.141C519.953 472.17 519.757 472.196 519.6 472.217C519.229 472.264 518.89 472.343 518.583 472.454C518.281 472.565 518.038 472.724 517.855 472.933C517.676 473.138 517.586 473.411 517.586 473.751C517.586 474.224 517.761 474.582 518.11 474.825C518.46 475.064 518.905 475.183 519.446 475.183ZM530.557 476.698C529.607 476.698 528.789 476.483 528.103 476.053C527.421 475.618 526.897 475.019 526.53 474.256C526.164 473.494 525.98 472.62 525.98 471.636C525.98 470.638 526.168 469.759 526.543 468.996C526.918 468.229 527.446 467.63 528.128 467.2C528.81 466.769 529.613 466.554 530.538 466.554C531.284 466.554 531.949 466.692 532.532 466.969C533.116 467.242 533.587 467.626 533.945 468.12C534.307 468.614 534.522 469.192 534.591 469.852H532.73C532.628 469.392 532.394 468.996 532.027 468.663C531.665 468.331 531.179 468.165 530.57 468.165C530.037 468.165 529.571 468.305 529.17 468.587C528.774 468.864 528.465 469.26 528.243 469.776C528.022 470.287 527.911 470.892 527.911 471.591C527.911 472.307 528.02 472.925 528.237 473.445C528.454 473.964 528.761 474.367 529.157 474.653C529.558 474.938 530.029 475.081 530.57 475.081C530.932 475.081 531.26 475.015 531.554 474.883C531.853 474.746 532.102 474.553 532.302 474.301C532.507 474.05 532.65 473.747 532.73 473.393H534.591C534.522 474.028 534.316 474.595 533.971 475.094C533.625 475.592 533.163 475.984 532.583 476.27C532.008 476.555 531.333 476.698 530.557 476.698ZM538.392 473.17L538.379 470.837H538.712L542.624 466.682H544.912L540.45 471.412H540.15L538.392 473.17ZM536.634 476.5V463.409H538.546V476.5H536.634ZM542.835 476.5L539.319 471.834L540.636 470.498L545.181 476.5H542.835Z" fill="black" fill-opacity="0.8"/>
<path d="M783 62.5C783.552 62.5 784 62.0523 784 61.5C784 60.9477 783.552 60.5 783 60.5V62.5ZM608.223 60.5C607.67 60.5 607.223 60.9477 607.223 61.5C607.223 62.0523 607.67 62.5 608.223 62.5V60.5ZM315.348 62.5C315.9 62.5 316.348 62.0523 316.348 61.5C316.348 60.9477 315.9 60.5 315.348 60.5V62.5ZM57.5598 152.5C57.0075 152.5 56.617 153.176 56.8932 153.655L61.3333 161.345C61.6095 161.824 62.3905 161.824 62.6667 161.345L67.1068 153.655C67.383 153.176 66.9925 152.5 66.4402 152.5H57.5598ZM783 61.5V60.5H608.223V61.5V62.5H783V61.5ZM315.348 61.5V60.5H86V61.5V62.5H315.348V61.5ZM62 85.5H61V153.5H62H63V85.5H62ZM86 61.5V60.5C72.1929 60.5 61 71.6929 61 85.5H62H63C63 72.7975 73.2975 62.5 86 62.5V61.5Z" fill="#0061FE"/>
<path d="M325.341 68V54.9091H330.007C331.025 54.9091 331.869 55.0945 332.538 55.4652C333.207 55.8359 333.708 56.343 334.04 56.9865C334.373 57.6257 334.539 58.3459 334.539 59.147C334.539 59.9524 334.37 60.6768 334.034 61.3203C333.701 61.9595 333.199 62.4666 332.525 62.8416C331.856 63.2124 331.015 63.3977 330 63.3977H326.792V61.723H329.821C330.465 61.723 330.987 61.6122 331.387 61.3906C331.788 61.1648 332.082 60.858 332.27 60.4702C332.457 60.0824 332.551 59.6413 332.551 59.147C332.551 58.6527 332.457 58.2138 332.27 57.8303C332.082 57.4467 331.786 57.1463 331.381 56.929C330.98 56.7116 330.452 56.603 329.796 56.603H327.316V68H325.341ZM340.809 68.1982C339.842 68.1982 339.009 67.9915 338.31 67.5781C337.615 67.1605 337.078 66.5746 336.699 65.8203C336.324 65.0618 336.137 64.1733 336.137 63.1548C336.137 62.1491 336.324 61.2628 336.699 60.4957C337.078 59.7287 337.607 59.13 338.284 58.6996C338.966 58.2692 339.763 58.054 340.675 58.054C341.229 58.054 341.766 58.1456 342.286 58.3288C342.806 58.5121 343.272 58.7997 343.686 59.1918C344.099 59.5838 344.425 60.093 344.664 60.7195C344.902 61.3416 345.022 62.098 345.022 62.9886V63.6662H337.217V62.2344H343.149C343.149 61.7315 343.047 61.2862 342.842 60.8984C342.637 60.5064 342.35 60.1974 341.979 59.9716C341.613 59.7457 341.182 59.6328 340.688 59.6328C340.151 59.6328 339.682 59.7649 339.282 60.0291C338.885 60.2891 338.578 60.63 338.361 61.0518C338.148 61.4695 338.042 61.9233 338.042 62.4134V63.532C338.042 64.1882 338.157 64.7464 338.387 65.2067C338.621 65.6669 338.947 66.0185 339.365 66.2614C339.782 66.5 340.27 66.6193 340.828 66.6193C341.191 66.6193 341.521 66.5682 341.819 66.4659C342.118 66.3594 342.375 66.2017 342.593 65.9929C342.81 65.7841 342.976 65.5263 343.091 65.2195L344.9 65.5455C344.755 66.0781 344.495 66.5447 344.12 66.9453C343.75 67.3416 343.283 67.6506 342.721 67.8722C342.162 68.0895 341.525 68.1982 340.809 68.1982ZM347.142 68V58.1818H348.99V59.7415H349.092C349.271 59.2131 349.586 58.7976 350.038 58.495C350.494 58.1882 351.009 58.0348 351.585 58.0348C351.704 58.0348 351.845 58.0391 352.007 58.0476C352.173 58.0561 352.303 58.0668 352.396 58.0795V59.9077C352.32 59.8864 352.183 59.8629 351.987 59.8374C351.791 59.8075 351.595 59.7926 351.399 59.7926C350.948 59.7926 350.545 59.8885 350.191 60.0803C349.842 60.2678 349.565 60.5298 349.36 60.8665C349.156 61.1989 349.053 61.5781 349.053 62.0043V68H347.142ZM361.408 60.5788L359.675 60.8857C359.603 60.6641 359.488 60.4531 359.33 60.2528C359.177 60.0526 358.968 59.8885 358.704 59.7607C358.44 59.6328 358.109 59.5689 357.713 59.5689C357.172 59.5689 356.72 59.6903 356.358 59.9332C355.996 60.1719 355.815 60.4808 355.815 60.8601C355.815 61.1882 355.936 61.4524 356.179 61.6527C356.422 61.853 356.814 62.017 357.355 62.1449L358.915 62.5028C359.818 62.7116 360.491 63.0334 360.935 63.468C361.378 63.9027 361.599 64.4673 361.599 65.1619C361.599 65.75 361.429 66.2741 361.088 66.7344C360.751 67.1903 360.281 67.5483 359.675 67.8082C359.075 68.0682 358.378 68.1982 357.585 68.1982C356.486 68.1982 355.589 67.9638 354.894 67.495C354.2 67.022 353.773 66.3509 353.616 65.4815L355.463 65.2003C355.578 65.6818 355.815 66.0462 356.173 66.2933C356.531 66.5362 356.997 66.6577 357.572 66.6577C358.199 66.6577 358.7 66.5277 359.075 66.2678C359.45 66.0036 359.637 65.6818 359.637 65.3026C359.637 64.9957 359.522 64.7379 359.292 64.5291C359.066 64.3203 358.719 64.1626 358.25 64.0561L356.588 63.6918C355.672 63.483 354.994 63.1506 354.555 62.6946C354.121 62.2386 353.903 61.6612 353.903 60.9624C353.903 60.3828 354.065 59.8757 354.389 59.4411C354.713 59.0064 355.161 58.6676 355.732 58.4247C356.303 58.1776 356.957 58.054 357.694 58.054C358.755 58.054 359.59 58.2841 360.2 58.7443C360.809 59.2003 361.212 59.8118 361.408 60.5788ZM367.836 68.1982C366.916 68.1982 366.113 67.9872 365.427 67.5653C364.741 67.1435 364.208 66.5533 363.829 65.7947C363.449 65.0362 363.26 64.1499 363.26 63.1357C363.26 62.1172 363.449 61.2266 363.829 60.4638C364.208 59.701 364.741 59.1087 365.427 58.6868C366.113 58.2649 366.916 58.054 367.836 58.054C368.757 58.054 369.56 58.2649 370.246 58.6868C370.932 59.1087 371.465 59.701 371.844 60.4638C372.224 61.2266 372.413 62.1172 372.413 63.1357C372.413 64.1499 372.224 65.0362 371.844 65.7947C371.465 66.5533 370.932 67.1435 370.246 67.5653C369.56 67.9872 368.757 68.1982 367.836 68.1982ZM367.843 66.5938C368.439 66.5938 368.934 66.4361 369.326 66.1207C369.718 65.8054 370.008 65.3857 370.195 64.8615C370.387 64.3374 370.483 63.7599 370.483 63.1293C370.483 62.5028 370.387 61.9276 370.195 61.4034C370.008 60.875 369.718 60.451 369.326 60.1314C368.934 59.8118 368.439 59.652 367.843 59.652C367.242 59.652 366.743 59.8118 366.347 60.1314C365.955 60.451 365.663 60.875 365.471 61.4034C365.284 61.9276 365.19 62.5028 365.19 63.1293C365.19 63.7599 365.284 64.3374 365.471 64.8615C365.663 65.3857 365.955 65.8054 366.347 66.1207C366.743 66.4361 367.242 66.5938 367.843 66.5938ZM376.458 62.1705V68H374.547V58.1818H376.381V59.7798H376.502C376.728 59.2599 377.082 58.8423 377.564 58.527C378.049 58.2116 378.661 58.054 379.398 58.054C380.067 58.054 380.653 58.1946 381.156 58.4759C381.659 58.7528 382.049 59.1662 382.326 59.7159C382.603 60.2656 382.741 60.9453 382.741 61.755V68H380.83V61.9851C380.83 61.2734 380.645 60.7173 380.274 60.3168C379.903 59.9119 379.394 59.7095 378.746 59.7095C378.303 59.7095 377.909 59.8054 377.564 59.9972C377.223 60.1889 376.952 60.4702 376.752 60.8409C376.556 61.2074 376.458 61.6506 376.458 62.1705ZM388.162 68.2173C387.539 68.2173 386.977 68.1023 386.474 67.8722C385.971 67.6378 385.573 67.299 385.279 66.8558C384.989 66.4126 384.844 65.8693 384.844 65.2259C384.844 64.6719 384.951 64.2159 385.164 63.858C385.377 63.5 385.664 63.2166 386.027 63.0078C386.389 62.799 386.794 62.6413 387.241 62.5348C387.689 62.4283 388.145 62.3473 388.609 62.2919C389.197 62.2237 389.674 62.1683 390.041 62.1257C390.407 62.0788 390.674 62.0043 390.84 61.902C391.006 61.7997 391.089 61.6335 391.089 61.4034V61.3587C391.089 60.8004 390.931 60.3679 390.616 60.0611C390.305 59.7543 389.841 59.6009 389.223 59.6009C388.579 59.6009 388.072 59.7436 387.701 60.0291C387.335 60.3104 387.081 60.6236 386.941 60.9688L385.145 60.5597C385.358 59.9631 385.669 59.4815 386.078 59.1151C386.491 58.7443 386.966 58.4759 387.503 58.3097C388.04 58.1392 388.605 58.054 389.197 58.054C389.589 58.054 390.005 58.1009 390.444 58.1946C390.887 58.2841 391.3 58.4503 391.684 58.6932C392.071 58.9361 392.389 59.2834 392.636 59.7351C392.883 60.1825 393.007 60.7642 393.007 61.4801V68H391.14V66.6577H391.064C390.94 66.9048 390.755 67.1477 390.507 67.3864C390.26 67.625 389.943 67.8232 389.555 67.9808C389.167 68.1385 388.703 68.2173 388.162 68.2173ZM388.577 66.6832C389.105 66.6832 389.557 66.5788 389.932 66.37C390.311 66.1612 390.599 65.8885 390.795 65.5518C390.995 65.2109 391.096 64.8466 391.096 64.4588V63.1932C391.027 63.2614 390.895 63.3253 390.699 63.3849C390.507 63.4403 390.288 63.4893 390.041 63.532C389.794 63.5703 389.553 63.6065 389.319 63.6406C389.084 63.6705 388.888 63.696 388.73 63.7173C388.36 63.7642 388.021 63.843 387.714 63.9538C387.412 64.0646 387.169 64.2244 386.985 64.4332C386.806 64.6378 386.717 64.9105 386.717 65.2514C386.717 65.7244 386.892 66.0824 387.241 66.3253C387.591 66.5639 388.036 66.6832 388.577 66.6832ZM397.464 54.9091V68H395.552V54.9091H397.464ZM400.035 68V58.1818H401.946V68H400.035ZM401 56.6669C400.668 56.6669 400.382 56.5561 400.143 56.3345C399.909 56.1087 399.792 55.8402 399.792 55.5291C399.792 55.2138 399.909 54.9453 400.143 54.7237C400.382 54.4979 400.668 54.3849 401 54.3849C401.332 54.3849 401.616 54.4979 401.85 54.7237C402.089 54.9453 402.208 55.2138 402.208 55.5291C402.208 55.8402 402.089 56.1087 401.85 56.3345C401.616 56.5561 401.332 56.6669 401 56.6669ZM404.313 68V66.6896L409.631 59.9332V59.8438H404.485V58.1818H412.015V59.5753L406.901 66.2486V66.3381H412.194V68H404.313ZM418.399 68.1982C417.432 68.1982 416.599 67.9915 415.9 67.5781C415.205 67.1605 414.668 66.5746 414.289 65.8203C413.914 65.0618 413.727 64.1733 413.727 63.1548C413.727 62.1491 413.914 61.2628 414.289 60.4957C414.668 59.7287 415.197 59.13 415.874 58.6996C416.556 58.2692 417.353 58.054 418.265 58.054C418.819 58.054 419.356 58.1456 419.876 58.3288C420.396 58.5121 420.862 58.7997 421.276 59.1918C421.689 59.5838 422.015 60.093 422.254 60.7195C422.492 61.3416 422.612 62.098 422.612 62.9886V63.6662H414.807V62.2344H420.739C420.739 61.7315 420.636 61.2862 420.432 60.8984C420.227 60.5064 419.94 60.1974 419.569 59.9716C419.202 59.7457 418.772 59.6328 418.278 59.6328C417.741 59.6328 417.272 59.7649 416.871 60.0291C416.475 60.2891 416.168 60.63 415.951 61.0518C415.738 61.4695 415.631 61.9233 415.631 62.4134V63.532C415.631 64.1882 415.746 64.7464 415.977 65.2067C416.211 65.6669 416.537 66.0185 416.955 66.2614C417.372 66.5 417.86 66.6193 418.418 66.6193C418.781 66.6193 419.111 66.5682 419.409 66.4659C419.707 66.3594 419.965 66.2017 420.183 65.9929C420.4 65.7841 420.566 65.5263 420.681 65.2195L422.49 65.5455C422.345 66.0781 422.085 66.5447 421.71 66.9453C421.339 67.3416 420.873 67.6506 420.31 67.8722C419.752 68.0895 419.115 68.1982 418.399 68.1982ZM428.407 68.1918C427.615 68.1918 426.907 67.9893 426.285 67.5845C425.667 67.1754 425.182 66.5937 424.828 65.8395C424.479 65.081 424.304 64.1712 424.304 63.1101C424.304 62.049 424.481 61.1413 424.834 60.3871C425.192 59.6328 425.682 59.0554 426.305 58.6548C426.927 58.2543 427.632 58.054 428.42 58.054C429.03 58.054 429.52 58.1562 429.89 58.3608C430.265 58.5611 430.555 58.7955 430.76 59.0639C430.969 59.3324 431.131 59.5689 431.246 59.7734H431.361V54.9091H433.272V68H431.405V66.4723H431.246C431.131 66.6811 430.964 66.9197 430.747 67.1882C430.534 67.4567 430.24 67.6911 429.865 67.8913C429.49 68.0916 429.004 68.1918 428.407 68.1918ZM428.829 66.5618C429.379 66.5618 429.844 66.4169 430.223 66.1271C430.606 65.8331 430.896 65.4261 431.092 64.9062C431.292 64.3864 431.393 63.7812 431.393 63.0909C431.393 62.4091 431.295 61.8125 431.099 61.3011C430.903 60.7898 430.615 60.3913 430.236 60.1058C429.856 59.8203 429.388 59.6776 428.829 59.6776C428.254 59.6776 427.775 59.8267 427.391 60.125C427.008 60.4233 426.718 60.8303 426.522 61.3459C426.33 61.8615 426.234 62.4432 426.234 63.0909C426.234 63.7472 426.332 64.3374 426.528 64.8615C426.724 65.3857 427.014 65.8011 427.398 66.108C427.785 66.4105 428.263 66.5618 428.829 66.5618ZM440.917 68V54.9091H445.583C446.597 54.9091 447.439 55.0838 448.108 55.4332C448.781 55.7827 449.284 56.2663 449.616 56.8842C449.949 57.4979 450.115 58.2074 450.115 59.0128C450.115 59.8139 449.947 60.5192 449.61 61.1286C449.278 61.7337 448.775 62.2045 448.101 62.5412C447.432 62.8778 446.591 63.0462 445.577 63.0462H442.042V61.3459H445.398C446.037 61.3459 446.557 61.2543 446.957 61.071C447.362 60.8878 447.658 60.6214 447.846 60.272C448.033 59.9226 448.127 59.5028 448.127 59.0128C448.127 58.5185 448.031 58.0902 447.839 57.728C447.652 57.3658 447.356 57.0888 446.951 56.897C446.55 56.701 446.024 56.603 445.372 56.603H442.892V68H440.917ZM447.379 62.0938L450.613 68H448.363L445.193 62.0938H447.379ZM456.473 68.1982C455.506 68.1982 454.673 67.9915 453.974 67.5781C453.279 67.1605 452.743 66.5746 452.363 65.8203C451.988 65.0618 451.801 64.1733 451.801 63.1548C451.801 62.1491 451.988 61.2628 452.363 60.4957C452.743 59.7287 453.271 59.13 453.949 58.6996C454.63 58.2692 455.427 58.054 456.339 58.054C456.893 58.054 457.43 58.1456 457.95 58.3288C458.47 58.5121 458.936 58.7997 459.35 59.1918C459.763 59.5838 460.089 60.093 460.328 60.7195C460.566 61.3416 460.686 62.098 460.686 62.9886V63.6662H452.881V62.2344H458.813C458.813 61.7315 458.711 61.2862 458.506 60.8984C458.301 60.5064 458.014 60.1974 457.643 59.9716C457.277 59.7457 456.846 59.6328 456.352 59.6328C455.815 59.6328 455.346 59.7649 454.946 60.0291C454.549 60.2891 454.243 60.63 454.025 61.0518C453.812 61.4695 453.706 61.9233 453.706 62.4134V63.532C453.706 64.1882 453.821 64.7464 454.051 65.2067C454.285 65.6669 454.611 66.0185 455.029 66.2614C455.446 66.5 455.934 66.6193 456.493 66.6193C456.855 66.6193 457.185 66.5682 457.483 66.4659C457.782 66.3594 458.039 66.2017 458.257 65.9929C458.474 65.7841 458.64 65.5263 458.755 65.2195L460.564 65.5455C460.419 66.0781 460.159 66.5447 459.784 66.9453C459.414 67.3416 458.947 67.6506 458.385 67.8722C457.826 68.0895 457.189 68.1982 456.473 68.1982ZM466.942 68.1982C465.992 68.1982 465.173 67.983 464.487 67.5526C463.806 67.1179 463.281 66.5192 462.915 65.7564C462.548 64.9936 462.365 64.12 462.365 63.1357C462.365 62.1385 462.553 61.2585 462.928 60.4957C463.303 59.7287 463.831 59.13 464.513 58.6996C465.195 58.2692 465.998 58.054 466.923 58.054C467.669 58.054 468.333 58.1925 468.917 58.4695C469.501 58.7422 469.972 59.1257 470.33 59.62C470.692 60.1143 470.907 60.6918 470.975 61.3523H469.115C469.013 60.892 468.779 60.4957 468.412 60.1634C468.05 59.831 467.564 59.6648 466.955 59.6648C466.422 59.6648 465.955 59.8054 465.555 60.0866C465.159 60.3636 464.85 60.7599 464.628 61.2756C464.406 61.7869 464.296 62.392 464.296 63.0909C464.296 63.8068 464.404 64.4247 464.622 64.9446C464.839 65.4645 465.146 65.8672 465.542 66.1527C465.943 66.4382 466.414 66.581 466.955 66.581C467.317 66.581 467.645 66.5149 467.939 66.3828C468.237 66.2464 468.487 66.0526 468.687 65.8011C468.892 65.5497 469.034 65.2472 469.115 64.8935H470.975C470.907 65.5284 470.7 66.0952 470.355 66.5938C470.01 67.0923 469.548 67.4844 468.968 67.7699C468.393 68.0554 467.718 68.1982 466.942 68.1982ZM477.155 68.1982C476.234 68.1982 475.431 67.9872 474.745 67.5653C474.059 67.1435 473.526 66.5533 473.147 65.7947C472.768 65.0362 472.578 64.1499 472.578 63.1357C472.578 62.1172 472.768 61.2266 473.147 60.4638C473.526 59.701 474.059 59.1087 474.745 58.6868C475.431 58.2649 476.234 58.054 477.155 58.054C478.075 58.054 478.879 58.2649 479.565 58.6868C480.251 59.1087 480.783 59.701 481.163 60.4638C481.542 61.2266 481.732 62.1172 481.732 63.1357C481.732 64.1499 481.542 65.0362 481.163 65.7947C480.783 66.5533 480.251 67.1435 479.565 67.5653C478.879 67.9872 478.075 68.1982 477.155 68.1982ZM477.161 66.5938C477.758 66.5938 478.252 66.4361 478.644 66.1207C479.036 65.8054 479.326 65.3857 479.513 64.8615C479.705 64.3374 479.801 63.7599 479.801 63.1293C479.801 62.5028 479.705 61.9276 479.513 61.4034C479.326 60.875 479.036 60.451 478.644 60.1314C478.252 59.8118 477.758 59.652 477.161 59.652C476.56 59.652 476.062 59.8118 475.665 60.1314C475.273 60.451 474.982 60.875 474.79 61.4034C474.602 61.9276 474.509 62.5028 474.509 63.1293C474.509 63.7599 474.602 64.3374 474.79 64.8615C474.982 65.3857 475.273 65.8054 475.665 66.1207C476.062 66.4361 476.56 66.5938 477.161 66.5938ZM483.865 68V58.1818H485.699V59.7798H485.821C486.025 59.2386 486.36 58.8168 486.824 58.5142C487.289 58.2074 487.845 58.054 488.493 58.054C489.149 58.054 489.699 58.2074 490.142 58.5142C490.589 58.821 490.92 59.2429 491.133 59.7798H491.235C491.469 59.2557 491.842 58.8381 492.354 58.527C492.865 58.2116 493.474 58.054 494.182 58.054C495.072 58.054 495.799 58.3331 496.361 58.8913C496.928 59.4496 497.211 60.2912 497.211 61.4162V68H495.3V61.5952C495.3 60.9304 495.119 60.4489 494.757 60.1506C494.395 59.8523 493.962 59.7031 493.459 59.7031C492.837 59.7031 492.354 59.8949 492.008 60.2784C491.663 60.6577 491.491 61.1456 491.491 61.7422V68H489.586V61.4737C489.586 60.9411 489.42 60.5128 489.087 60.1889C488.755 59.8651 488.322 59.7031 487.79 59.7031C487.427 59.7031 487.093 59.799 486.786 59.9908C486.483 60.1783 486.238 60.4403 486.051 60.777C485.868 61.1136 485.776 61.5036 485.776 61.9467V68H483.865ZM499.773 68V58.1818H501.608V59.7798H501.729C501.934 59.2386 502.268 58.8168 502.733 58.5142C503.197 58.2074 503.753 58.054 504.401 58.054C505.057 58.054 505.607 58.2074 506.05 58.5142C506.498 58.821 506.828 59.2429 507.041 59.7798H507.143C507.377 59.2557 507.75 58.8381 508.262 58.527C508.773 58.2116 509.382 58.054 510.09 58.054C510.98 58.054 511.707 58.3331 512.27 58.8913C512.836 59.4496 513.12 60.2912 513.12 61.4162V68H511.208V61.5952C511.208 60.9304 511.027 60.4489 510.665 60.1506C510.303 59.8523 509.87 59.7031 509.368 59.7031C508.745 59.7031 508.262 59.8949 507.917 60.2784C507.571 60.6577 507.399 61.1456 507.399 61.7422V68H505.494V61.4737C505.494 60.9411 505.328 60.5128 504.995 60.1889C504.663 59.8651 504.23 59.7031 503.698 59.7031C503.336 59.7031 503.001 59.799 502.694 59.9908C502.392 60.1783 502.147 60.4403 501.959 60.777C501.776 61.1136 501.684 61.5036 501.684 61.9467V68H499.773ZM519.913 68.1982C518.945 68.1982 518.112 67.9915 517.414 67.5781C516.719 67.1605 516.182 66.5746 515.803 65.8203C515.428 65.0618 515.24 64.1733 515.24 63.1548C515.24 62.1491 515.428 61.2628 515.803 60.4957C516.182 59.7287 516.71 59.13 517.388 58.6996C518.07 58.2692 518.867 58.054 519.779 58.054C520.333 58.054 520.869 58.1456 521.389 58.3288C521.909 58.5121 522.376 58.7997 522.789 59.1918C523.203 59.5838 523.529 60.093 523.767 60.7195C524.006 61.3416 524.125 62.098 524.125 62.9886V63.6662H516.32V62.2344H522.252C522.252 61.7315 522.15 61.2862 521.945 60.8984C521.741 60.5064 521.453 60.1974 521.083 59.9716C520.716 59.7457 520.286 59.6328 519.791 59.6328C519.254 59.6328 518.786 59.7649 518.385 60.0291C517.989 60.2891 517.682 60.63 517.465 61.0518C517.252 61.4695 517.145 61.9233 517.145 62.4134V63.532C517.145 64.1882 517.26 64.7464 517.49 65.2067C517.725 65.6669 518.051 66.0185 518.468 66.2614C518.886 66.5 519.374 66.6193 519.932 66.6193C520.294 66.6193 520.624 66.5682 520.923 66.4659C521.221 66.3594 521.479 66.2017 521.696 65.9929C521.914 65.7841 522.08 65.5263 522.195 65.2195L524.004 65.5455C523.859 66.0781 523.599 66.5447 523.224 66.9453C522.853 67.3416 522.387 67.6506 521.824 67.8722C521.266 68.0895 520.629 68.1982 519.913 68.1982ZM528.157 62.1705V68H526.246V58.1818H528.08V59.7798H528.202C528.428 59.2599 528.781 58.8423 529.263 58.527C529.749 58.2116 530.36 58.054 531.097 58.054C531.766 58.054 532.352 58.1946 532.855 58.4759C533.358 58.7528 533.748 59.1662 534.025 59.7159C534.302 60.2656 534.44 60.9453 534.44 61.755V68H532.529V61.9851C532.529 61.2734 532.344 60.7173 531.973 60.3168C531.602 59.9119 531.093 59.7095 530.445 59.7095C530.002 59.7095 529.608 59.8054 529.263 59.9972C528.922 60.1889 528.651 60.4702 528.451 60.8409C528.255 61.2074 528.157 61.6506 528.157 62.1705ZM540.679 68.1918C539.886 68.1918 539.179 67.9893 538.557 67.5845C537.939 67.1754 537.453 66.5937 537.099 65.8395C536.75 65.081 536.575 64.1712 536.575 63.1101C536.575 62.049 536.752 61.1413 537.106 60.3871C537.464 59.6328 537.954 59.0554 538.576 58.6548C539.198 58.2543 539.903 58.054 540.692 58.054C541.301 58.054 541.791 58.1562 542.162 58.3608C542.537 58.5611 542.827 58.7955 543.031 59.0639C543.24 59.3324 543.402 59.5689 543.517 59.7734H543.632V54.9091H545.543V68H543.677V66.4723H543.517C543.402 66.6811 543.236 66.9197 543.018 67.1882C542.805 67.4567 542.511 67.6911 542.136 67.8913C541.761 68.0916 541.276 68.1918 540.679 68.1918ZM541.101 66.5618C541.651 66.5618 542.115 66.4169 542.494 66.1271C542.878 65.8331 543.168 65.4261 543.364 64.9062C543.564 64.3864 543.664 63.7812 543.664 63.0909C543.664 62.4091 543.566 61.8125 543.37 61.3011C543.174 60.7898 542.886 60.3913 542.507 60.1058C542.128 59.8203 541.659 59.6776 541.101 59.6776C540.526 59.6776 540.046 59.8267 539.663 60.125C539.279 60.4233 538.989 60.8303 538.793 61.3459C538.602 61.8615 538.506 62.4432 538.506 63.0909C538.506 63.7472 538.604 64.3374 538.8 64.8615C538.996 65.3857 539.286 65.8011 539.669 66.108C540.057 66.4105 540.534 66.5618 541.101 66.5618ZM551.128 68.2173C550.506 68.2173 549.944 68.1023 549.441 67.8722C548.938 67.6378 548.54 67.299 548.246 66.8558C547.956 66.4126 547.811 65.8693 547.811 65.2259C547.811 64.6719 547.917 64.2159 548.131 63.858C548.344 63.5 548.631 63.2166 548.993 63.0078C549.356 62.799 549.76 62.6413 550.208 62.5348C550.655 62.4283 551.111 62.3473 551.576 62.2919C552.164 62.2237 552.641 62.1683 553.008 62.1257C553.374 62.0788 553.64 62.0043 553.807 61.902C553.973 61.7997 554.056 61.6335 554.056 61.4034V61.3587C554.056 60.8004 553.898 60.3679 553.583 60.0611C553.272 59.7543 552.807 59.6009 552.189 59.6009C551.546 59.6009 551.039 59.7436 550.668 60.0291C550.302 60.3104 550.048 60.6236 549.907 60.9688L548.111 60.5597C548.324 59.9631 548.635 59.4815 549.045 59.1151C549.458 58.7443 549.933 58.4759 550.47 58.3097C551.007 58.1392 551.572 58.054 552.164 58.054C552.556 58.054 552.971 58.1009 553.41 58.1946C553.854 58.2841 554.267 58.4503 554.65 58.6932C555.038 58.9361 555.356 59.2834 555.603 59.7351C555.85 60.1825 555.974 60.7642 555.974 61.4801V68H554.107V66.6577H554.03C553.907 66.9048 553.721 67.1477 553.474 67.3864C553.227 67.625 552.91 67.8232 552.522 67.9808C552.134 68.1385 551.67 68.2173 551.128 68.2173ZM551.544 66.6832C552.072 66.6832 552.524 66.5788 552.899 66.37C553.278 66.1612 553.566 65.8885 553.762 65.5518C553.962 65.2109 554.062 64.8466 554.062 64.4588V63.1932C553.994 63.2614 553.862 63.3253 553.666 63.3849C553.474 63.4403 553.255 63.4893 553.008 63.532C552.76 63.5703 552.52 63.6065 552.285 63.6406C552.051 63.6705 551.855 63.696 551.697 63.7173C551.327 63.7642 550.988 63.843 550.681 63.9538C550.378 64.0646 550.135 64.2244 549.952 64.4332C549.773 64.6378 549.684 64.9105 549.684 65.2514C549.684 65.7244 549.858 66.0824 550.208 66.3253C550.557 66.5639 551.003 66.6832 551.544 66.6832ZM563.102 58.1818V59.7159H557.739V58.1818H563.102ZM559.178 55.8295H561.089V65.1172C561.089 65.4879 561.144 65.767 561.255 65.9545C561.366 66.1378 561.509 66.2635 561.683 66.3317C561.862 66.3956 562.056 66.4276 562.265 66.4276C562.418 66.4276 562.553 66.4169 562.668 66.3956C562.783 66.3743 562.872 66.3572 562.936 66.3445L563.281 67.9233C563.17 67.9659 563.013 68.0085 562.808 68.0511C562.604 68.098 562.348 68.1236 562.041 68.1278C561.538 68.1364 561.07 68.0469 560.635 67.8594C560.2 67.6719 559.849 67.3821 559.58 66.9901C559.312 66.598 559.178 66.1058 559.178 65.5135V55.8295ZM565.216 68V58.1818H567.128V68H565.216ZM566.182 56.6669C565.849 56.6669 565.564 56.5561 565.325 56.3345C565.091 56.1087 564.974 55.8402 564.974 55.5291C564.974 55.2138 565.091 54.9453 565.325 54.7237C565.564 54.4979 565.849 54.3849 566.182 54.3849C566.514 54.3849 566.797 54.4979 567.032 54.7237C567.27 54.9453 567.39 55.2138 567.39 55.5291C567.39 55.8402 567.27 56.1087 567.032 56.3345C566.797 56.5561 566.514 56.6669 566.182 56.6669ZM573.835 68.1982C572.914 68.1982 572.111 67.9872 571.425 67.5653C570.739 67.1435 570.206 66.5533 569.827 65.7947C569.447 65.0362 569.258 64.1499 569.258 63.1357C569.258 62.1172 569.447 61.2266 569.827 60.4638C570.206 59.701 570.739 59.1087 571.425 58.6868C572.111 58.2649 572.914 58.054 573.835 58.054C574.755 58.054 575.558 58.2649 576.244 58.6868C576.93 59.1087 577.463 59.701 577.842 60.4638C578.222 61.2266 578.411 62.1172 578.411 63.1357C578.411 64.1499 578.222 65.0362 577.842 65.7947C577.463 66.5533 576.93 67.1435 576.244 67.5653C575.558 67.9872 574.755 68.1982 573.835 68.1982ZM573.841 66.5938C574.438 66.5938 574.932 66.4361 575.324 66.1207C575.716 65.8054 576.006 65.3857 576.193 64.8615C576.385 64.3374 576.481 63.7599 576.481 63.1293C576.481 62.5028 576.385 61.9276 576.193 61.4034C576.006 60.875 575.716 60.451 575.324 60.1314C574.932 59.8118 574.438 59.652 573.841 59.652C573.24 59.652 572.741 59.8118 572.345 60.1314C571.953 60.451 571.661 60.875 571.469 61.4034C571.282 61.9276 571.188 62.5028 571.188 63.1293C571.188 63.7599 571.282 64.3374 571.469 64.8615C571.661 65.3857 571.953 65.8054 572.345 66.1207C572.741 66.4361 573.24 66.5938 573.841 66.5938ZM582.456 62.1705V68H580.545V58.1818H582.379V59.7798H582.501C582.726 59.2599 583.08 58.8423 583.562 58.527C584.047 58.2116 584.659 58.054 585.396 58.054C586.065 58.054 586.651 58.1946 587.154 58.4759C587.657 58.7528 588.047 59.1662 588.324 59.7159C588.601 60.2656 588.739 60.9453 588.739 61.755V68H586.828V61.9851C586.828 61.2734 586.643 60.7173 586.272 60.3168C585.901 59.9119 585.392 59.7095 584.744 59.7095C584.301 59.7095 583.907 59.8054 583.562 59.9972C583.221 60.1889 582.95 60.4702 582.75 60.8409C582.554 61.2074 582.456 61.6506 582.456 62.1705ZM598.66 60.5788L596.927 60.8857C596.855 60.6641 596.74 60.4531 596.582 60.2528C596.429 60.0526 596.22 59.8885 595.956 59.7607C595.692 59.6328 595.361 59.5689 594.965 59.5689C594.424 59.5689 593.972 59.6903 593.61 59.9332C593.248 60.1719 593.067 60.4808 593.067 60.8601C593.067 61.1882 593.188 61.4524 593.431 61.6527C593.674 61.853 594.066 62.017 594.607 62.1449L596.167 62.5028C597.07 62.7116 597.743 63.0334 598.187 63.468C598.63 63.9027 598.851 64.4673 598.851 65.1619C598.851 65.75 598.681 66.2741 598.34 66.7344C598.003 67.1903 597.532 67.5483 596.927 67.8082C596.327 68.0682 595.63 68.1982 594.837 68.1982C593.738 68.1982 592.841 67.9638 592.146 67.495C591.452 67.022 591.025 66.3509 590.868 65.4815L592.715 65.2003C592.83 65.6818 593.067 66.0462 593.425 66.2933C593.782 66.5362 594.249 66.6577 594.824 66.6577C595.451 66.6577 595.952 66.5277 596.327 66.2678C596.702 66.0036 596.889 65.6818 596.889 65.3026C596.889 64.9957 596.774 64.7379 596.544 64.5291C596.318 64.3203 595.971 64.1626 595.502 64.0561L593.84 63.6918C592.924 63.483 592.246 63.1506 591.807 62.6946C591.373 62.2386 591.155 61.6612 591.155 60.9624C591.155 60.3828 591.317 59.8757 591.641 59.4411C591.965 59.0064 592.412 58.6676 592.983 58.4247C593.555 58.1776 594.209 58.054 594.946 58.054C596.007 58.054 596.842 58.2841 597.452 58.7443C598.061 59.2003 598.464 59.8118 598.66 60.5788Z" fill="black" fill-opacity="0.8"/>
<path d="M848 126.5V162.5" stroke="#0061FE" stroke-width="2" stroke-linecap="round" stroke-linejoin="bevel" stroke-dasharray="4 4"/>
</svg>
